<svg width="406" height="812" viewBox="0 0 406 812" fill="none" xmlns="http://www.w3.org/2000/svg">
<g clip-path="url(#clip0)">
<rect width="812" height="406" transform="translate(0 812) rotate(-90)" fill="#FAFAFA"/>
<path fill-rule="evenodd" clip-rule="evenodd" d="M0 49.8546C8.06181 42.774 14.2934 33.2749 17.7062 22.418C19.9996 15.1227 21.1161 7.58949 21.6547 0L22.3422 0C21.8036 7.64904 20.677 15.2513 18.3607 22.6196C14.8447 33.8 8.37578 43.5603 0 50.7635L0 49.8546" fill="#062D7F" fill-opacity="0.03"/>
<path fill-rule="evenodd" clip-rule="evenodd" d="M0 65.7103C0.280681 65.5122 0.561633 65.3241 0.842315 65.1224C15.8889 54.3085 26.3662 38.373 31.141 19.0446C32.6965 12.7403 33.7873 6.27108 34.6364 0L35.3269 0C34.4775 6.32061 33.3773 12.8456 31.8082 19.2062C26.9941 38.6972 16.4241 54.7645 1.24236 65.6746C0.829593 65.9715 0.416285 66.2557 0 66.5434L0 65.7103" fill="#062D7F" fill-opacity="0.03"/>
<path fill-rule="evenodd" clip-rule="evenodd" d="M241.611 89.0142C247.473 95.546 246.343 106.853 245.344 116.847C243.362 136.652 239.913 156.948 234.791 178.897C233.278 185.39 231.514 191.971 229.815 198.334C226.148 212.056 222.355 226.241 220.756 240.451C218.397 261.485 219.857 282.871 221.549 302.976C223.109 321.401 224.067 342.602 215.747 361.045C209.443 375.014 198.292 386.55 183.5 394.405C169.461 401.859 153.222 405.248 137.775 403.94C118.08 402.278 100.753 394.819 88.9876 382.937C84.1936 378.094 80.1625 372.367 76.2638 366.829C70.2204 358.244 63.9729 349.366 54.8533 343.888C40.8972 335.502 22.3056 338.745 12.5327 351.271C0.270667 366.986 8.323 388.112 12.3573 396.467C15.1492 402.257 18.4465 407.838 21.6317 413.23C27.9553 423.94 34.4943 435.01 37.2464 448.021C40.8842 465.236 39.447 482.932 38.0557 500.032L37.9204 501.697C35.1718 535.603 34.9174 570.487 63.903 591.818C75.0545 600.025 88.3794 604.864 101.265 609.55C106.275 611.366 111.455 613.25 116.434 615.304C119.206 616.441 122.008 617.651 124.72 618.812C138.369 624.688 152.485 630.759 167.703 630.905C187.2 631.089 202.924 619.713 217.353 608.042L220.498 605.498C235.307 593.496 249.296 582.164 265.948 572.834C268.466 571.426 271.01 570.073 273.706 568.63C286.942 561.574 300.627 554.279 308.3 541.98C317.378 527.429 314.604 509.165 312.152 493.049L312.008 492.078C308.961 471.994 306.728 452.295 312.866 432.176C316.103 421.528 321.114 411.508 325.956 401.816C329.902 393.92 333.978 385.757 337.045 377.35C337.916 374.957 338.783 372.57 339.641 370.188C345.655 353.51 351.339 337.76 360.187 322.41C368.256 308.411 377.921 296.534 388.166 283.959C390.239 281.412 392.315 278.857 394.391 276.278C399.147 270.349 403.006 264.63 406 259.034V264.492C403.342 268.929 400.191 273.417 396.537 277.975C394.456 280.562 392.375 283.12 390.299 285.67C380.13 298.161 370.529 309.954 362.566 323.763C353.843 338.902 348.199 354.546 342.22 371.106C341.359 373.49 340.501 375.883 339.622 378.278C336.504 386.829 332.392 395.062 328.416 403.026C323.617 412.618 318.667 422.532 315.489 432.961C309.521 452.541 311.716 471.907 314.718 491.674L314.867 492.646C317.386 509.219 320.242 528.011 310.625 543.42C302.57 556.334 288.555 563.807 275 571.036C272.318 572.463 269.788 573.811 267.297 575.213C250.849 584.426 236.946 595.683 222.23 607.612L219.084 610.156C204.916 621.616 188.085 633.826 167.677 633.628C151.903 633.485 137.531 627.297 123.631 621.318C120.928 620.154 118.132 618.953 115.384 617.816C110.457 615.786 105.306 613.918 100.324 612.105C87.2526 607.36 73.7399 602.45 62.2677 594.005C32.1552 571.848 32.3766 536.145 35.1848 501.481L35.3201 499.816C36.6948 482.899 38.1188 465.414 34.5601 448.576C31.9008 436.001 25.7648 425.613 19.2661 414.61C16.0513 409.164 12.724 403.534 9.88204 397.645C5.62987 388.834 -2.83469 366.518 10.3644 349.604C20.9772 336 41.1454 332.465 56.2743 341.557C65.8892 347.333 72.3054 356.452 78.5136 365.27C82.3463 370.716 86.3115 376.349 90.9435 381.028C102.25 392.448 118.962 399.621 138.006 401.228C169.6 403.897 201.242 386.526 213.243 359.927C221.298 342.079 220.346 321.29 218.82 303.204C217.108 282.963 215.641 261.425 218.034 240.15C219.652 225.739 223.472 211.452 227.166 197.637C228.857 191.294 230.615 184.732 232.115 178.283C237.21 156.446 240.646 136.265 242.615 116.56C243.554 107.14 244.624 96.4649 239.562 90.8283C236.959 87.924 232.922 86.4665 227.219 86.3739C212.727 86.143 197.532 91.9415 182.063 103.608C178.98 105.931 175.877 108.323 172.874 110.636C160.863 119.887 148.444 129.455 134.653 136.89C119.345 145.146 101.144 153.189 79.013 161.482C56.6248 169.871 36.5625 172.98 17.6799 170.981C11.3761 170.316 5.54379 168.945 0 167.085L0 164.224C5.61363 166.166 11.5082 167.591 17.9709 168.275C36.4168 170.224 56.0659 167.168 78.0446 158.934C100.06 150.684 118.146 142.692 133.344 134.498C146.937 127.166 159.268 117.67 171.192 108.485C174.202 106.166 177.311 103.77 180.403 101.437C196.372 89.3937 212.139 83.4106 227.264 83.6515C233.774 83.7538 238.465 85.5083 241.611 89.0142" fill="#062D7F" fill-opacity="0.03"/>
<path fill-rule="evenodd" clip-rule="evenodd" d="M403.179 181.831C401.989 178.283 400.754 174.615 399.617 171.043C394.15 153.869 387.113 134.431 372.683 121.116C361.792 111.065 347.208 108.402 333.101 105.825C329.241 105.122 325.255 104.394 321.408 103.525C312 101.401 302.565 98.7839 292.566 95.5229C289.486 94.5222 286.268 93.5735 283.15 92.6584C276.448 90.6888 269.523 88.6506 263.14 85.8289C253.558 81.5862 250.895 73.293 249.64 66.5399C248.067 58.0355 246.164 49.0218 241.796 40.5505C234.97 27.3208 223.168 17.7292 204.658 10.3679C195.192 6.60481 185.386 3.23447 175.778 0L184.253 0C191.426 2.46496 198.639 5.04171 205.676 7.8404C224.575 15.3536 237.19 25.6489 244.235 39.3081C248.774 48.1102 250.73 57.3448 252.342 66.0473C254.041 75.2229 257.602 80.394 264.256 83.3375C270.475 86.0901 277.314 88.102 283.929 90.0446C287.061 90.9667 290.306 91.9216 293.419 92.9361C303.336 96.1706 312.693 98.7641 322.017 100.869C325.812 101.725 329.769 102.445 333.596 103.146C348.088 105.792 363.075 108.531 374.551 119.12C389.473 132.888 396.662 152.716 402.232 170.224C403.364 173.773 404.592 177.43 405.783 180.968C405.854 181.183 405.927 181.401 406 181.616V190.306C405.074 187.464 404.124 184.639 403.179 181.831" fill="#062D7F" fill-opacity="0.03"/>
<path fill-rule="evenodd" clip-rule="evenodd" d="M8.37578 420.326C15.4894 434.13 22.2096 447.163 24.8694 462.426C27.6684 478.503 25.2432 494.641 22.8935 510.242C22.2691 514.391 21.6249 518.681 21.0895 522.904C18.4264 543.81 20.1119 559.392 26.5416 573.407C32.8486 587.154 43.5375 599.234 56.6411 607.414C67.2073 614.007 79.4158 617.485 91.2241 620.85C97.3041 622.579 103.588 624.371 109.572 626.564C113.851 628.131 118.245 629.955 122.494 631.712C136.698 637.585 151.381 643.667 166.702 642.86C190.395 641.604 208.23 626.988 225.481 612.846C235.697 604.474 246.263 595.81 258.019 589.875C280.056 578.761 299.452 575.167 315.668 579.191C319.473 580.136 323.195 581.265 326.789 582.356C341.227 586.729 354.866 590.868 369.787 581.476C375.604 577.816 381.101 573.719 386.415 569.761C392.651 565.114 399.036 560.364 406 556.279V557.073C399.201 561.092 392.943 565.75 386.829 570.303C381.505 574.276 375.991 578.377 370.158 582.052C354.966 591.607 341.181 587.431 326.592 583.005C323.003 581.92 319.295 580.796 315.503 579.852C299.452 575.868 280.216 579.449 258.33 590.484C246.64 596.384 236.107 605.021 225.917 613.374C208.58 627.581 190.656 642.27 166.738 643.534C151.262 644.352 136.503 638.248 122.23 632.34C117.987 630.583 113.6 628.764 109.334 627.205C103.374 625.018 97.1022 623.234 91.036 621.502C79.1814 618.124 66.9229 614.638 56.2776 607.988C43.0617 599.735 32.2805 587.558 25.9204 573.691C19.4312 559.552 17.7327 543.864 20.4088 522.817C20.9442 518.589 21.5916 514.294 22.2163 510.142C24.5557 494.586 26.9741 478.509 24.1922 462.545C21.5491 447.379 14.8547 434.387 7.76461 420.638C6.73337 418.635 5.69943 416.632 4.67495 414.615C3.08614 411.478 1.50355 408.287 0 405.044L0 403.41C1.68138 407.107 3.47942 410.745 5.28937 414.312C6.31059 416.329 7.34454 418.332 8.37578 420.326" fill="#062D7F" fill-opacity="0.03"/>
<path fill-rule="evenodd" clip-rule="evenodd" d="M86.0769 356.357C79.2701 347.972 72.2328 339.302 63.1966 333.001C49.2632 323.29 29.9376 322.824 13.9664 331.813C8.36901 334.964 3.66429 338.98 0 343.609L0 342.526C3.63776 338.109 8.22015 334.265 13.6294 331.22C29.8288 322.104 49.4413 322.583 63.5899 332.441C72.7084 338.796 79.7763 347.509 86.6085 355.929C90.8344 361.134 95.2021 366.521 100 371.271C112.331 383.489 129.498 389.893 147.096 388.84C165.162 387.754 181.917 379.058 193.062 364.978C209.86 343.749 208.534 317.676 207.259 292.461C206.571 278.881 205.858 264.838 207.982 251.708C208.617 247.78 209.126 243.808 209.615 239.965C210.17 235.607 210.744 231.097 211.511 226.637C212.859 218.79 214.551 210.883 216.19 203.238C216.765 200.538 217.346 197.839 217.908 195.136L218.232 193.583C221.8 176.514 225.851 157.167 224.093 139.424C223.049 128.893 219.289 120.779 213.506 116.573C209.096 113.368 203.585 112.433 197.125 113.798C185.766 116.193 175.791 122.854 166.143 129.293C160.89 132.803 155.458 136.427 149.904 139.285C139.605 144.581 128.507 148.698 117.776 152.676C115.096 153.671 112.42 154.662 109.76 155.67C105.471 157.298 101.133 159.013 96.9374 160.672C88.3862 164.055 79.5449 167.554 70.6435 170.478C45.6885 178.676 22.9431 180.575 0 176.284L0 175.589C22.8708 179.892 45.5432 178.005 70.4288 169.83C79.3067 166.913 88.1418 163.421 96.6829 160.041C100.882 158.379 105.22 156.664 109.516 155.035C112.175 154.024 114.855 153.033 117.534 152.039C128.249 148.063 139.328 143.957 149.59 138.68C155.108 135.842 160.523 132.224 165.76 128.728C175.465 122.253 185.495 115.555 196.983 113.131C203.641 111.726 209.337 112.701 213.91 116.025C219.857 120.347 223.716 128.633 224.774 139.354C226.544 157.202 222.481 176.607 218.906 193.722L218.581 195.275C218.014 197.978 217.439 200.68 216.857 203.38C215.225 211.019 213.533 218.918 212.192 226.75C211.425 231.197 210.851 235.7 210.295 240.052C209.806 243.9 209.298 247.878 208.66 251.814C206.548 264.874 207.259 278.881 207.943 292.426C209.228 317.768 210.553 343.971 193.6 365.397C182.333 379.632 165.4 388.423 147.138 389.516C129.343 390.583 111.983 384.106 99.5141 371.755C94.6906 366.975 90.3125 361.578 86.0769 356.357" fill="#062D7F" fill-opacity="0.03"/>
<path fill-rule="evenodd" clip-rule="evenodd" d="M91.8326 343.289C87.2792 338.458 82.5709 333.464 77.546 329.023C62.0793 315.351 44.8395 310.506 26.3134 314.623C16.5464 316.794 7.53671 320.529 0 325.366L0 324.559C7.52995 319.79 16.4804 316.109 26.1613 313.96C44.9185 309.789 62.3602 314.685 78.0015 328.514C83.05 332.974 87.7685 337.982 92.3312 342.824C99.8083 350.757 107.54 358.961 116.907 364.956C132.353 374.846 150.413 375.355 165.218 366.315C183.06 355.426 189.463 337.078 191.694 323.604C193.878 310.412 194.38 296.702 194.862 283.448C195.126 276.218 195.398 268.747 195.942 261.462C196.951 247.912 199.032 234.306 201.04 221.146C202.191 213.636 203.377 205.875 204.351 198.203L204.361 198.117C206.027 185.027 207.751 171.49 204.754 158.799C203.265 152.478 200.624 147.902 196.914 145.193C190.058 140.191 180.853 142.629 172.015 145.559C163.381 148.421 154.553 151.179 146.015 153.846C134.362 157.487 122.309 161.25 110.586 165.331C104.814 167.34 98.966 169.556 93.3096 171.698C79.6369 176.878 65.4994 182.237 50.9977 185.231C34.6096 188.614 17.4653 189.12 0 186.747L0 186.061C17.4188 188.436 34.5173 187.94 50.8588 184.564C65.3043 181.58 79.4158 176.234 93.0647 171.063C98.7243 168.916 104.579 166.699 110.358 164.69C122.094 160.606 134.151 156.839 145.81 153.195C154.345 150.529 163.17 147.773 171.797 144.912C178.457 142.708 189.602 139.014 197.32 144.644C201.166 147.453 203.892 152.161 205.422 158.643C206.627 163.745 207.077 168.972 207.077 174.245C207.077 182.214 206.05 190.29 205.042 198.203L205.032 198.288C204.054 205.967 202.868 213.735 201.721 221.248C199.709 234.395 197.634 247.987 196.623 261.512C196.081 268.784 195.811 276.251 195.546 283.469C195.064 296.748 194.561 310.479 192.371 323.715C190.118 337.329 183.638 355.867 165.578 366.897C150.542 376.075 132.208 375.566 116.537 365.533C107.097 359.489 99.336 351.252 91.8326 343.289" fill="#062D7F" fill-opacity="0.03"/>
<path fill-rule="evenodd" clip-rule="evenodd" d="M76.3231 315.308C62.1391 304.34 45.0538 300.516 26.921 304.243C20.3758 305.591 10.4112 308.157 0 312.744L0 312C10.3679 307.466 20.2635 304.919 26.7825 303.577C45.1201 299.804 62.3935 303.677 76.7462 314.769C81.8807 318.74 86.8827 323.501 92.1823 328.54C108.372 343.95 125.114 359.881 147.875 355.388C170.617 350.895 177.411 324.995 180.787 302.93C181.947 295.357 182.77 287.605 183.569 280.107C184.018 275.907 184.481 271.568 184.997 267.306C185.561 262.634 186.156 257.952 186.754 253.27C188.766 237.481 190.848 221.155 191.69 205.062C192.873 182.547 187.236 169.312 174.949 165.72C166.801 163.338 157.712 164.293 149.105 165.476C147.984 165.631 146.415 165.657 144.598 165.687C140.203 165.763 134.184 165.869 132.386 168.119L132.277 168.208C130.023 169.391 127.41 169.685 124.883 169.966C123.898 170.075 122.97 170.181 122.058 170.333C118.113 170.997 114.171 172.289 110.358 173.538L109.05 173.964C101.635 176.376 94.2475 179.237 87.0978 182.006C83.9689 183.215 80.7312 184.471 77.5357 185.67C58.0751 192.969 38.413 196.775 19.0909 196.98C12.7538 197.049 6.31059 196.689 0 196.273L0 195.592C6.31059 196.008 12.7571 196.369 19.0839 196.299C38.3237 196.094 57.9099 192.301 77.2916 185.032C80.486 183.833 83.7213 182.581 86.8502 181.371C94.0066 178.599 101.404 175.735 108.835 173.32L110.143 172.89C113.979 171.634 117.948 170.333 121.942 169.662C122.874 169.507 123.855 169.394 124.806 169.289C127.249 169.018 129.769 168.733 131.897 167.636C133.939 165.191 139.837 165.089 144.585 165.007C146.382 164.977 147.932 164.951 149.012 164.802C157.692 163.609 166.864 162.644 175.14 165.066C186.694 168.443 192.529 179.99 192.529 199.425C192.529 201.245 192.48 203.138 192.378 205.095C191.532 221.215 189.45 237.553 187.435 253.357C186.837 258.039 186.242 262.714 185.677 267.385C185.162 271.644 184.699 275.982 184.253 280.178C183.453 287.686 182.624 295.446 181.464 303.033C178.319 323.579 171.43 351.431 148.007 356.056C124.899 360.62 108.026 344.561 91.7065 329.033C86.4239 324.004 81.4314 319.257 76.3231 315.308" fill="#062D7F" fill-opacity="0.03"/>
<path fill-rule="evenodd" clip-rule="evenodd" d="M395.135 586.123C398.67 583.075 402.273 579.976 406 577.01V577.889C402.438 580.742 398.982 583.711 395.585 586.637C389.11 592.221 382.417 597.992 375.133 602.775C359.472 613.071 343.844 614.056 324.462 605.974C308.736 599.413 292.48 592.633 273.72 597.25C253.803 602.155 238.128 615.098 222.97 627.616C210.421 637.969 197.449 648.674 182.086 654.872C164.743 661.872 144.872 661.092 123.036 652.566C121.608 652.011 120.184 651.443 118.757 650.883C111.557 648.033 104.11 645.088 96.504 643.058C90.1076 641.347 83.4465 640.533 77.0041 639.753C74.7473 639.477 72.4115 639.193 70.1148 638.876C60.3944 637.52 51.6716 634.667 41.8288 629.611C34.6792 625.944 28.5797 620.609 22.6827 615.45C20.2207 613.295 17.6764 611.068 15.0964 609C10.841 605.589 5.7292 602.12 0 600.872L0 600.165C5.91055 601.413 11.1577 604.97 15.5254 608.472C18.119 610.545 20.6703 612.778 23.1347 614.933C29.0025 620.067 35.0689 625.375 42.146 629.008C51.9166 634.018 60.573 636.851 70.2109 638.194C72.5008 638.519 74.8334 638.803 77.0867 639.074C83.5526 639.867 90.2395 640.679 96.6829 642.397C104.328 644.438 111.792 647.391 119.011 650.247C120.435 650.81 121.86 651.378 123.287 651.933C144.955 660.391 164.65 661.171 181.828 654.244C197.093 648.087 210.024 637.414 222.527 627.086C237.752 614.524 253.485 601.532 273.555 596.59C292.534 591.91 308.901 598.744 324.727 605.346C343.871 613.333 359.299 612.364 374.757 602.214C382 597.451 388.675 591.693 395.135 586.123" fill="#062D7F" fill-opacity="0.03"/>
<path fill-rule="evenodd" clip-rule="evenodd" d="M10.5763 812C9.88204 800.813 10.5993 790.577 12.7173 780.327C14.4983 771.698 16.8043 763.047 19.0346 754.681C22.0182 743.5 25.1008 731.937 26.9611 720.279C29.4255 704.843 31.0279 684.887 21.4725 667.429C15.7601 656.995 8.23043 648.88 0 643.951L0 643.158C8.47457 648.133 16.2257 656.418 22.0742 667.104C27.7542 677.479 29.5346 688.701 29.5346 699.351C29.5346 706.805 28.6595 713.981 27.6383 720.385C25.7715 732.075 22.6851 743.659 19.6983 754.86C17.4683 763.212 15.1655 771.849 13.3877 780.465C11.2836 790.669 10.5663 800.851 11.2638 812H10.5763" fill="#062D7F" fill-opacity="0.03"/>
<path fill-rule="evenodd" clip-rule="evenodd" d="M91.7203 315.879C82.4554 308.232 72.8735 300.326 61.5542 296.028C44.9713 289.73 26.7297 293.933 9.48876 299.414C6.39991 300.397 3.22499 301.409 0 302.448L0 299.582C2.93727 298.637 5.83151 297.717 8.65321 296.821C26.3697 291.188 45.1594 286.885 62.5354 293.484C74.2785 297.944 84.0347 305.997 93.4712 313.784C95.4303 315.4 97.4589 317.072 99.4551 318.669C115.215 331.293 128.577 336.947 139.166 335.486C145.831 334.563 151.576 330.771 156.244 324.213C168.017 307.672 170.971 285.155 173.574 265.288L173.802 263.566C174.189 260.629 174.615 257.626 175.028 254.724C176.544 244.065 178.114 233.047 178.114 222.239C178.114 217.359 177.804 212.899 177.166 208.6C175.59 197.961 171.857 190.358 166.068 186.001C160.166 181.557 152.422 180.433 144.334 179.601C126.548 180.215 109.602 183.658 92.5293 190.124C90.8444 190.765 89.1657 191.406 87.4911 192.047C73.1119 197.545 58.2434 203.231 42.3147 205.279C30.5128 206.799 18.4892 206.941 6.86275 207.08C4.59944 207.11 2.30256 207.139 0 207.176L0 204.453C2.29336 204.414 4.57643 204.384 6.82946 204.358C18.3769 204.219 30.3214 204.077 41.9647 202.577C57.5662 200.571 71.6216 195.196 86.5064 189.503C88.1846 188.862 89.8632 188.217 91.5516 187.58C108.944 180.992 126.208 177.49 144.334 176.875L144.426 176.872L144.518 176.881C153.046 177.753 161.233 178.943 167.723 183.83C174.106 188.631 178.193 196.835 179.878 208.203C180.536 212.634 180.856 217.227 180.856 222.239C180.856 233.239 179.274 244.356 177.744 255.104C177.331 257.999 176.905 260.996 176.521 263.919L176.297 265.637C173.65 285.818 170.65 308.692 158.485 325.785C153.361 332.982 146.987 337.153 139.543 338.182C128.015 339.776 114.336 334.092 97.7337 320.791C95.7213 319.178 93.6859 317.5 91.7203 315.879" fill="#062D7F" fill-opacity="0.03"/>
<path fill-rule="evenodd" clip-rule="evenodd" d="M91.9577 300.584C80.7935 291.792 69.2528 282.703 55.1375 279.924C40.8842 277.122 26.7194 281.515 13.021 285.759C8.73929 287.088 4.33121 288.439 0 289.551L0 288.848C4.26246 287.749 8.60043 286.417 12.8161 285.11C26.5979 280.836 40.8477 276.419 55.2734 279.258C69.5465 282.065 81.1572 291.208 92.384 300.05C95.0866 302.178 97.8785 304.378 100.628 306.419C118.446 319.641 132.918 321.945 143.643 313.259C154.163 304.741 157.913 289.421 160.652 278.229C163.728 265.661 166.87 250.813 166.87 235.974V235.971C166.87 230.526 166.438 225.283 165.585 220.396C162.47 202.554 150.552 192.639 130.192 190.92C113.589 190.884 98.0639 197.318 83.0465 203.535C81.4349 204.206 79.8256 204.874 78.2167 205.531C60.5135 212.77 44.3663 216.263 27.4001 216.517L24.615 216.556C16.6988 216.669 8.27645 216.788 0 217.548L0 216.86C8.27645 216.107 16.692 215.988 24.6082 215.876L27.3907 215.837C44.2675 215.582 60.3351 212.106 77.9555 204.9C79.5611 204.243 81.1702 203.575 82.7829 202.907C97.8622 196.663 113.454 190.204 130.222 190.243C150.962 191.988 163.088 202.095 166.262 220.277C167.122 225.206 167.558 230.486 167.558 235.971V235.974C167.558 250.886 164.402 265.783 161.316 278.392C158.557 289.676 154.774 305.125 144.076 313.787C133.077 322.697 118.321 320.399 100.218 306.966C97.459 304.917 94.6638 302.717 91.9577 300.584" fill="#062D7F" fill-opacity="0.03"/>
<path fill-rule="evenodd" clip-rule="evenodd" d="M50.373 0C49.9605 1.46349 49.5537 2.92374 49.1544 4.3645C44.8787 19.7248 40.4579 35.6076 31.9102 49.4283C23.8187 62.5056 12.747 72.4507 0 82.0491L0 81.1932C12.5156 71.734 23.3794 61.9142 31.3256 49.0719C39.8237 35.3334 44.231 19.4967 48.4934 4.18288C48.8764 2.80546 49.2667 1.40395 49.66 0L50.373 0" fill="#062D7F" fill-opacity="0.03"/>
<path fill-rule="evenodd" clip-rule="evenodd" d="M16.4078 160.236C10.7874 158.898 5.25012 156.776 0 154.04L0 153.278C5.29289 156.063 10.887 158.22 16.5694 159.575C33.5424 163.623 51.6454 161.6 75.2656 153.02C96.2071 145.411 114.812 136.748 130.566 127.268C143.507 119.48 153.984 109.86 165.076 99.673C167.947 97.0394 170.915 94.3138 173.905 91.6469C177.004 88.8788 180.205 86.1226 183.302 83.4565C187.636 79.7262 192.113 75.8671 196.386 71.9289C197.208 71.1656 198.074 70.3888 198.959 69.593C204.55 64.5608 210.883 58.8578 213.282 52.0976C213.936 50.2479 214.273 48.3578 214.273 46.4748V46.4713C214.267 33.03 197.423 22.0342 190.181 17.9309C177.123 10.533 162.922 5.075 148.929 0L150.922 0C164.369 4.90637 177.962 10.2258 190.521 17.3394C199.646 22.5105 214.954 33.1721 214.954 46.4713V46.4748C214.954 48.4336 214.61 50.4027 213.93 52.3226C211.472 59.2481 205.069 65.0101 199.419 70.0951C198.536 70.8917 197.674 71.6677 196.851 72.4277C192.573 76.3759 188.089 80.2351 183.754 83.9722C180.658 86.635 177.46 89.3904 174.361 92.1531C171.377 94.8159 168.41 97.5415 165.542 100.175C154.424 110.385 143.923 120.029 130.922 127.849C115.129 137.352 96.4846 146.035 75.5003 153.661C51.7482 162.287 33.5229 164.316 16.4078 160.236" fill="#062D7F" fill-opacity="0.03"/>
<path fill-rule="evenodd" clip-rule="evenodd" d="M85.9118 277.095C81.9633 273.495 77.8795 269.775 73.6801 266.616C65.6415 260.566 58.6832 257.527 51.7839 257.048C44.208 256.522 37.0849 259.578 30.1921 262.535C28.5107 263.259 26.7695 264.006 25.0678 264.676C19.2693 266.97 9.47279 270.832 0 271.955L0 271.27C9.35343 270.148 19.0712 266.312 24.8134 264.046C26.505 263.375 28.2427 262.631 29.9214 261.911C36.8865 258.921 44.0889 255.831 51.834 256.367C58.8714 256.856 65.9452 259.939 74.0931 266.071C78.3188 269.249 82.4126 272.984 86.3738 276.595C94.4892 283.989 102.881 291.638 113.173 295.387C128.54 300.984 139.629 290.187 144.885 278.216C149.335 268.077 151.89 255.993 151.89 245.067C151.89 233.496 148.81 213.252 128.236 207.672C116.706 206.347 104.322 209.063 91.429 215.741C87.4611 217.795 83.4993 220.254 79.6702 222.626C72.6191 226.998 65.3273 231.518 57.4111 233.962C47.6671 236.972 37.3155 235.747 27.3076 234.561C19.6721 233.659 11.7754 232.723 4.20264 233.675C2.86149 233.843 1.44753 234.111 0 234.461L0 233.764C1.41748 233.424 2.79869 233.163 4.11684 232.997C11.7754 232.036 19.7121 232.978 27.3907 233.887C37.3255 235.063 47.6049 236.279 57.2062 233.311C65.0398 230.893 72.2924 226.396 79.3067 222.048C83.1461 219.669 87.1208 217.204 91.1118 215.136C104.13 208.392 116.646 205.653 128.365 207.008C149.432 212.714 152.577 233.305 152.577 245.067V245.071C152.577 256.086 150.003 268.265 145.513 278.486C140.134 290.742 128.749 301.788 112.938 296.026C102.518 292.228 94.0756 284.536 85.9118 277.095" fill="#062D7F" fill-opacity="0.03"/>
<path fill-rule="evenodd" clip-rule="evenodd" d="M72.6921 0C72.1237 0.462569 71.5656 0.957889 71.0235 1.50003C64.5805 7.95598 60.6789 16.378 56.9058 24.5224C56.3799 25.6489 55.8583 26.7789 55.3297 27.899C48.6881 41.9912 39.1893 60.2558 24.5852 76.5545C22.0707 79.3595 19.2625 82.1121 16.2887 85.0224C10.2588 90.9337 4.09735 96.9736 0 103.846L0 102.534C4.12361 95.9919 10.0241 90.207 15.8096 84.5406C18.7734 81.6363 21.5721 78.8904 24.0731 76.102C38.6209 59.8661 48.0866 41.6575 54.7085 27.6085C55.2371 26.4915 55.7587 25.3647 56.2811 24.2347C60.0807 16.0375 64.0091 7.56297 70.5376 1.02095C70.8952 0.660968 71.2619 0.323988 71.6346 0L72.6921 0" fill="#062D7F" fill-opacity="0.03"/>
<path fill-rule="evenodd" clip-rule="evenodd" d="M19.8439 149.765C12.3803 147.258 4.88012 142.404 0 135.789L0 134.606C4.76103 141.502 12.4296 146.554 20.0618 149.121C33.7048 153.71 49.5802 153.046 68.5983 147.096C86.2945 141.555 105.068 132.849 122.887 121.912C138.581 112.281 150.786 100.076 164.283 84.7151C164.885 84.0317 165.513 83.3247 166.16 82.5912C174.843 72.7944 186.738 59.3767 186.738 46.3029V46.2994C186.738 44.231 186.427 42.2159 185.819 40.3123C181.649 27.2946 168.503 19.7944 154.913 13.6259C141.977 7.7546 128.289 3.62152 114.656 0L117.287 0C130.132 3.47238 142.992 7.46688 155.2 13.0082C168.928 19.2395 182.221 26.835 186.473 40.1074C187.101 42.077 187.422 44.1585 187.422 46.2994C187.422 46.3029 187.422 46.3029 187.422 46.3029C187.422 59.6346 175.431 73.1644 166.675 83.0405C166.027 83.774 165.4 84.481 164.802 85.1612C151.262 100.572 139.014 112.817 123.248 122.491C105.382 133.457 86.5559 142.189 68.8035 147.743C49.643 153.743 33.6249 154.404 19.8439 149.765" fill="#062D7F" fill-opacity="0.03"/>
<path fill-rule="evenodd" clip-rule="evenodd" d="M18.3998 118.36C18.3998 110.527 22.6025 101.212 30.8892 90.6759C43.2362 74.9786 53.9351 58.2663 63.6586 42.5457C64.2435 41.6005 64.8287 40.6423 65.4133 39.6815C69.1831 33.4827 73.0853 27.0765 78.5271 22.2722C86.1661 15.5321 96.0717 13.8504 103.037 13.629C104.962 13.5697 107.068 13.586 109.472 13.6853C127.384 16.507 145.655 20.9048 157.688 33.8332C162.01 38.4819 164.204 43.9372 164.204 50.0461V50.0494C164.204 61.3064 156.909 72.8701 151.42 80.5922C133.031 106.473 103.334 126.267 67.8087 136.328C55.3458 139.857 37.4575 143.444 26.0359 133.903C20.9704 129.666 18.3998 124.439 18.3998 118.36ZM164.888 50.0493V50.0461C164.888 43.7582 162.635 38.1481 158.19 33.3736C146.015 20.2895 127.612 15.8528 109.539 13.0081C107.077 12.9052 104.956 12.889 103.013 12.9485C95.9356 13.1764 85.8622 14.8878 78.071 21.7633C72.5535 26.6334 68.6247 33.0894 64.8251 39.3309C64.2405 40.2891 63.6586 41.244 63.0742 42.1892C53.36 57.8933 42.6746 74.5853 30.3479 90.2596C21.9651 100.915 17.7129 110.371 17.7129 118.36C17.7129 124.648 20.3662 130.053 25.5928 134.424C37.2661 144.174 55.3824 140.554 67.9968 136.982C103.671 126.882 133.499 106.994 151.982 80.9852C157.523 73.1908 164.888 61.4977 164.888 50.0493V50.0493Z" fill="#062D7F" fill-opacity="0.03"/>
<path fill-rule="evenodd" clip-rule="evenodd" d="M228.587 262.231C228.587 258.885 228.699 255.591 228.937 252.445C230.516 230.998 236.226 210.49 241.605 193.257C243.316 187.782 244.902 182.095 246.442 176.597C250.136 163.361 253.962 149.676 259.876 137.26C264.813 126.905 274.454 114.881 292.361 116.411C322.489 121.166 362.723 134.593 383.202 171.562C394.002 191.062 400.059 209.664 401.218 226.852C401.302 228.11 401.348 229.389 401.348 230.651C401.348 245.589 395.572 260.602 383.17 277.902C380.539 281.566 377.829 285.247 375.22 288.807C366.253 301 356.983 313.608 349.612 327.306C345.688 334.612 342.153 342.331 338.737 349.793C333.887 360.387 328.877 371.341 322.64 381.302C319.844 385.773 316.718 390.19 313.7 394.459C305.948 405.413 297.931 416.737 294.575 430.198C292.851 437.097 292.044 444.538 292.044 453.597C292.044 460.569 292.526 467.666 292.997 474.533C293.333 479.543 293.69 484.721 293.842 489.75C293.909 491.891 293.942 493.88 293.942 495.829C293.942 508.807 292.632 527.827 281.334 543.071C273.937 553.048 263.874 560.762 254.133 568.221C250.374 571.101 246.488 574.081 242.821 577.143C239.001 580.334 235.182 583.671 231.488 586.903C221.1 595.994 210.355 605.397 198.262 612.562C182.264 622.03 163.884 623.294 143.64 616.308C125.382 610.01 106.261 601.519 86.804 591.071C70.5448 582.337 59.4266 570.893 53.7602 557.04C48.9626 545.318 46.7296 532.301 46.7296 516.077C46.7296 505.511 47.671 494.646 48.5831 484.133C49.4883 473.667 50.4264 462.843 50.4264 452.362C50.4264 448.589 50.3111 445.114 50.0732 441.723C49.3659 431.759 47.5059 423.407 44.3838 416.201C42.0146 410.737 38.5752 405.821 35.2479 401.066C33.1037 397.996 30.8834 394.821 28.9766 391.536C25.2666 385.145 23.4658 379.55 23.4658 374.435C23.4658 372.272 23.7925 370.166 24.4437 368.174C27.1003 360.027 34.4584 355.84 42.7576 357.762C52.9907 360.127 59.0699 370.6 64.4293 379.845C65.5526 381.778 66.6128 383.602 67.6773 385.297C75.207 397.285 88.8094 405.437 109.258 410.225C126.614 414.293 149.306 418.258 170.918 412.813C189.454 408.138 206.922 398.383 218.84 386.046C229.968 374.532 235.38 358.501 235.38 337.034C235.38 324.473 233.589 311.627 232.155 301.301C230.397 288.663 228.587 275.593 228.587 262.231ZM402.03 230.655C402.03 230.655 402.03 230.655 402.03 230.651C402.03 229.373 401.989 228.081 401.902 226.806C400.741 209.519 394.649 190.822 383.803 171.235C363.192 134.025 322.746 120.515 292.442 115.734C274.118 114.168 264.283 126.419 259.255 136.969C253.314 149.435 249.481 163.15 245.781 176.416C244.241 181.907 242.656 187.59 240.951 193.055C235.565 210.325 229.836 230.879 228.25 252.395C228.019 255.557 227.9 258.868 227.9 262.231C227.9 275.639 229.717 288.734 231.474 301.398C232.908 311.697 234.693 324.519 234.693 337.034C234.693 358.317 229.347 374.191 218.344 385.573C206.512 397.823 189.167 407.51 170.75 412.152C149.283 417.563 126.697 413.614 109.417 409.565C89.1531 404.817 75.6891 396.762 68.2584 384.937C67.2015 383.251 66.144 381.432 65.024 379.505C59.5917 370.142 53.4367 359.529 42.9132 357.096C34.2465 355.096 26.5614 359.462 23.7893 367.966C23.1185 370.026 22.7783 372.202 22.7783 374.435C22.7783 379.672 24.6121 385.378 28.3817 391.874C30.3015 395.19 32.5318 398.375 34.6863 401.453C37.9933 406.181 41.4097 411.067 43.7523 416.467C46.8452 423.604 48.6884 431.876 49.3889 441.769C49.6271 445.139 49.7427 448.609 49.7427 452.363C49.7427 462.816 48.8043 473.626 47.8989 484.082C46.9867 494.6 46.0421 505.484 46.0421 516.078C46.0421 532.393 48.2919 545.491 53.126 557.297C58.8522 571.294 70.076 582.859 86.477 591.675C105.968 602.141 125.124 610.646 143.415 616.955C163.861 624.006 182.432 622.726 198.613 613.144C210.758 605.952 221.529 596.531 231.944 587.417C235.631 584.188 239.45 580.848 243.263 577.665C246.917 574.612 250.803 571.637 254.556 568.763C264.33 561.271 274.435 553.532 281.881 543.474C293.306 528.065 294.621 508.899 294.621 495.829C294.621 493.875 294.594 491.877 294.529 489.731C294.369 484.688 294.02 479.502 293.676 474.487C293.214 467.634 292.732 460.542 292.732 453.597C292.732 444.592 293.53 437.211 295.235 430.357C298.567 417.022 306.541 405.751 314.261 394.849C317.287 390.572 320.418 386.149 323.228 381.662C329.48 371.661 334.501 360.688 339.365 350.075C342.775 342.621 346.302 334.918 350.221 327.629C357.57 313.968 366.821 301.382 375.767 289.207C378.392 285.648 381.094 281.962 383.725 278.294C396.213 260.877 402.03 245.738 402.03 230.655V230.655Z" fill="#062D7F" fill-opacity="0.03"/>
<path fill-rule="evenodd" clip-rule="evenodd" d="M111.092 812C110.718 809.575 110.269 807.177 109.826 804.811C109.162 801.281 108.475 797.633 108.049 793.941C105.733 773.871 106.757 757.504 111.27 742.43L111.924 740.262C115.906 727.124 120.419 712.232 110.847 701.335C102.765 692.135 87.7351 690.925 77.0695 694.495C58.2568 700.786 50.9047 722.677 45.0009 740.262C44.2774 742.409 43.5737 744.512 42.8694 746.52C41.7163 749.817 40.4978 753.141 39.3177 756.359C35.1351 767.765 30.8098 779.56 28.834 791.746C27.777 798.274 27.3407 805.041 27.5058 812H24.764C24.5986 804.895 25.0446 797.985 26.1281 791.316C28.1438 778.873 32.515 766.953 36.741 755.428C37.9167 752.223 39.1328 748.899 40.2791 745.627C40.9801 743.627 41.6806 741.537 42.3971 739.404C48.4965 721.237 56.086 698.639 76.1944 691.91C87.7256 688.059 104.041 689.439 112.915 699.543C117.63 704.916 119.256 711.141 119.256 717.559C119.256 725.519 116.755 733.78 114.551 741.047L113.9 743.21C109.493 757.913 108.501 773.939 110.771 793.63C111.187 797.23 111.864 800.832 112.522 804.308C112.994 806.833 113.477 809.396 113.87 812H111.092Z" fill="#062D7F" fill-opacity="0.03"/>
<path fill-rule="evenodd" clip-rule="evenodd" d="M116.26 30.1359C124.324 31.4445 138.443 35.2569 143.128 46.1274C144.42 49.1245 145.074 52.3454 145.074 55.7058C145.074 64.8115 140.369 75.1929 131.085 86.5623C116.054 104.976 90.1308 119.276 65.04 122.999C57.1834 124.165 47.0299 124.215 43.25 117.828C42.074 115.839 41.4758 113.543 41.4758 110.999C41.4758 102.309 48.348 92.017 52.8944 85.2076C53.4068 84.4411 53.8926 83.7108 54.3454 83.0233C56.9357 79.0784 59.4494 75.0016 61.8778 71.0566C66.798 63.0671 71.8857 54.8104 77.8168 47.3665C82.0725 42.0236 87.1638 37.583 93.8314 33.3871C99.812 29.6268 107.295 29.8582 114.531 30.0831C115.109 30.0993 115.688 30.1196 116.26 30.1359ZM147.819 55.7058V55.7023C147.816 51.976 147.089 48.391 145.649 45.0537C140.432 32.9473 125.213 28.8143 116.606 27.4298L116.425 27.4136C115.827 27.3968 115.225 27.3805 114.617 27.3608C107.322 27.1329 99.0553 26.8785 92.3646 31.0846C85.4258 35.4491 80.1194 40.0843 75.6659 45.6749C69.6327 53.2473 64.5014 61.5771 59.5387 69.6321C57.1168 73.5609 54.6161 77.6249 52.0486 81.5334C51.5995 82.2176 51.1169 82.9408 50.6081 83.7009C45.8801 90.7847 38.7334 101.486 38.7334 110.999C38.7334 114.035 39.4572 116.797 40.8844 119.21C44.5419 125.388 52.8051 127.568 65.4433 125.695C91.1751 121.876 117.779 107.189 133.216 88.277C142.906 76.4123 147.819 65.4531 147.819 55.7058V55.7058Z" fill="#062D7F" fill-opacity="0.03"/>
<path fill-rule="evenodd" clip-rule="evenodd" d="M89.496 812C89.116 806.443 88.3167 800.469 87.0446 793.676L86.9385 793.099C85.2739 784.167 82.9932 771.936 75.6387 765.949C73.3061 764.046 70.8284 763.391 68.2738 764.005C59.7727 766.033 52.2363 781.285 49.3881 787.748C46.2394 794.891 45.9452 803.95 45.7205 812H45.0371C45.2618 803.885 45.5554 794.745 48.7607 787.477C51.6481 780.916 59.3134 765.44 68.1155 763.345C70.8877 762.676 73.564 763.377 76.0717 765.418C83.6212 771.565 85.9273 783.943 87.613 792.975L87.7221 793.548C88.9969 800.388 89.8035 806.402 90.183 812H89.496" fill="#062D7F" fill-opacity="0.03"/>
<path fill-rule="evenodd" clip-rule="evenodd" d="M300.232 142.107C333.291 148.794 363.96 171.522 378.365 200.03C383.776 210.745 386.645 222.293 386.645 233.42C386.645 240.332 385.562 247.115 383.421 253.575C378.676 267.938 369.549 280.779 360.728 293.203C358.184 296.781 355.553 300.484 353.096 304.132C345.344 315.638 338.209 327.797 331.31 339.557C327.523 346.004 323.612 352.673 319.652 359.14C314.921 366.865 308.961 374.016 301.942 380.398C298.091 383.903 293.695 386.945 289.446 389.89C285.553 392.586 281.531 395.377 277.856 398.551C271.525 404.027 268.447 411.581 268.447 421.642C268.447 428.29 269.722 435.121 270.951 441.723C271.414 444.194 271.841 446.527 272.207 448.806C274.399 462.697 276.673 477.058 276.673 491.263C276.673 498.222 276.137 504.539 275.041 510.572C273.262 520.346 269.979 529.135 265.274 536.7C261.938 542.067 257.49 546.72 253.195 551.213C251.041 553.468 248.82 555.798 246.739 558.204C243.078 562.44 238.657 566.186 234.375 569.813C232.003 571.83 229.545 573.911 227.238 576.057C226.38 576.867 225.514 577.671 224.648 578.477C218.239 584.478 211.604 590.684 204.444 595.957C193.471 604.044 176.132 612.8 155.842 608.592C140.712 605.452 126.581 597.621 112.915 590.048C110.329 588.614 107.649 587.128 105.036 585.72C91.2481 578.271 76.1056 568.592 68.3507 553.183C62.4461 541.466 59.8161 527.846 59.8161 509.027C59.8161 505.828 59.8892 502.347 60.0407 498.373L60.1206 496.254C60.8338 477.44 61.5673 457.984 68.6352 440.494C75.9072 422.487 93.7617 423.004 111.429 425.071C114.885 425.475 118.476 425.951 121.949 426.406C137.894 428.501 154.378 430.669 170.042 428.349C185.627 426.043 200.594 419.607 215.066 413.373C217.584 412.293 220.095 411.213 222.586 410.166C223.71 409.695 224.846 409.227 225.996 408.753C232.307 406.165 238.829 403.488 244.248 399.345C251.767 393.596 253.42 385.059 254.041 377.467C254.239 375.058 254.338 372.527 254.338 369.942C254.338 358.317 252.343 346.543 250.413 335.161C249.851 331.851 249.27 328.427 248.761 325.101C247.909 319.587 246.931 313.965 245.992 308.533C243.587 294.702 241.109 280.408 240.389 266.302C240.276 264.194 240.224 262.043 240.224 259.912C240.224 244.172 243.091 227.982 248.979 210.418C255.369 191.373 262.241 175.441 269.986 161.709C278.067 147.377 288.244 140.782 300.232 142.107ZM389.387 233.424V233.42C389.387 221.87 386.42 209.899 380.817 198.807C373.396 184.127 361.865 170.795 347.458 160.256C333.391 149.957 317.227 142.754 300.713 139.427L300.594 139.408C287.386 137.917 276.283 144.975 267.594 160.378C259.764 174.261 252.825 190.349 246.382 209.558C240.395 227.403 237.481 243.874 237.481 259.912C237.481 262.089 237.54 264.286 237.646 266.441C238.38 280.709 240.871 295.086 243.283 308.996C244.228 314.417 245.199 320.023 246.045 325.515C246.561 328.86 247.149 332.292 247.71 335.613C249.62 346.887 251.596 358.544 251.596 369.942C251.596 372.454 251.497 374.909 251.305 377.244C250.737 384.244 249.243 392.085 242.576 397.185C237.441 401.109 231.091 403.716 224.952 406.236C223.795 406.712 222.646 407.183 221.516 407.659C219.018 408.709 216.507 409.789 213.976 410.878C199.666 417.035 184.867 423.407 169.639 425.653C154.355 427.913 138.066 425.772 122.309 423.702C118.826 423.247 115.225 422.771 111.749 422.367C93.8478 420.267 74.0829 419.685 66.0874 439.476C58.8452 457.411 58.1014 477.102 57.3814 496.148L57.2989 498.268C57.1465 502.274 57.0742 505.795 57.0742 509.027C57.0742 528.29 59.7931 542.283 65.8961 554.404C73.9941 570.482 89.5623 580.466 103.724 588.113C106.327 589.52 108.997 590.998 111.581 592.427C125.424 600.098 139.741 608.034 155.28 611.26C172.131 614.754 189.698 610.215 206.08 598.144C213.368 592.776 220.056 586.513 226.531 580.458C227.39 579.66 228.256 578.853 229.115 578.047C231.375 575.946 233.807 573.884 236.159 571.889C240.514 568.194 245.021 564.37 248.82 559.982C250.856 557.622 253.057 555.316 255.184 553.088C259.578 548.49 264.118 543.732 267.607 538.134C272.491 530.277 275.907 521.166 277.745 511.062C278.868 504.856 279.417 498.381 279.417 491.263C279.417 476.844 277.13 462.38 274.916 448.384C274.545 446.064 274.11 443.718 273.647 441.227C272.445 434.745 271.195 428.038 271.195 421.642C271.195 412.288 273.885 405.602 279.661 400.608C283.223 397.526 287.188 394.778 291.021 392.123C295.341 389.129 299.809 386.033 303.799 382.406C311.01 375.851 317.129 368.499 321.993 360.555C325.969 354.065 329.889 347.387 333.681 340.929C340.561 329.204 347.677 317.081 355.375 305.645C357.813 302.026 360.439 298.337 362.967 294.772C371.91 282.186 381.153 269.173 386.03 254.424C388.258 247.69 389.387 240.623 389.387 233.424V233.424Z" fill="#062D7F" fill-opacity="0.03"/>
<path fill-rule="evenodd" clip-rule="evenodd" d="M71.8799 500.179C71.8799 494.884 72.1541 489.287 72.7154 483.075C74.2287 466.364 79.2772 454.788 88.1551 447.683C99.0589 438.962 113.91 439.233 125.629 440.44C128.716 440.765 131.822 441.122 134.828 441.471C147.582 442.96 159.625 444.359 172.422 443.084C178.815 442.451 185.251 441.222 191.476 440.031C202.835 437.858 214.584 435.616 226.399 436.932C256.149 443.918 258.469 481.928 258.469 493.412C258.469 494.76 258.442 496.113 258.389 497.442C256.928 533.76 229.459 561.587 208.925 579.362C191.499 594.441 175.395 599.954 158.244 596.715C141.066 593.477 123.757 583.057 109.09 573.291C93.3789 562.83 82.1482 548.779 76.6179 532.669C73.4295 523.38 71.8799 512.754 71.8799 500.179ZM259.155 493.412V493.412C259.155 480.447 256.704 468.069 252.257 458.574C246.58 446.449 237.924 438.943 226.519 436.266C214.558 434.924 202.759 437.184 191.347 439.365C185.136 440.548 178.715 441.777 172.352 442.41C159.631 443.672 147.621 442.278 134.907 440.797C131.901 440.448 128.792 440.085 125.702 439.766C113.851 438.545 98.8239 438.274 87.7261 447.155C78.6961 454.376 73.5613 466.107 72.0314 483.01C71.4666 489.249 71.1924 494.857 71.1924 500.179C71.1924 512.832 72.7555 523.532 75.9669 532.889C81.5475 549.145 92.8701 563.312 108.709 573.859C123.432 583.658 140.818 594.119 158.115 597.389C175.491 600.666 191.78 595.104 209.374 579.871C230.007 562.018 257.602 534.05 259.076 497.469C259.129 496.127 259.155 494.768 259.155 493.412V493.412Z" fill="#062D7F" fill-opacity="0.03"/>
<path fill-rule="evenodd" clip-rule="evenodd" d="M72.4379 92.5892C72.4379 85.9248 77.1063 76.8128 78.8643 73.3792C83.0467 65.2153 94.7733 46.4879 113.276 48.9531C122.322 51.4311 124.229 57.8045 124.229 62.7144C124.232 67.4023 122.444 72.9631 119.325 77.9751C115.298 84.4483 109.423 90.0057 102.332 94.0459C98.6785 96.1281 86.054 102.69 76.9845 99.7591C73.9679 98.7842 72.4379 96.3726 72.4379 92.5892ZM124.916 62.7143V62.7143C124.916 57.5662 122.92 50.8889 113.411 48.2886C94.4295 45.7543 82.5021 64.7763 78.2532 73.0722C76.4757 76.5413 71.7539 85.7597 71.7539 92.5891C71.7539 96.7027 73.4421 99.3328 76.7729 100.41C86.1101 103.427 98.9592 96.752 102.673 94.6376C109.862 90.541 115.823 84.9044 119.91 78.3326C123.092 73.2175 124.916 67.5249 124.916 62.7143V62.7143Z" fill="#062D7F" fill-opacity="0.03"/>
<path fill-rule="evenodd" clip-rule="evenodd" d="M86.3349 497.033C86.3349 485.833 88.7433 476.436 93.4981 469.092C99.7559 459.44 110.805 454.999 126.337 455.892C128.313 456.103 130.299 456.314 132.284 456.531C151.239 458.566 170.845 460.675 190.459 459.281C210.051 457.887 223.228 462.228 230.741 472.557C236.642 480.658 239.629 489.85 239.629 499.881C239.629 529.697 214.194 556.729 206.394 564.31C190.815 579.449 176.558 585.449 161.535 583.195C146.461 580.935 129.089 571.716 113.871 557.906C100.007 545.331 90.9999 529.662 87.8182 512.602C86.8338 507.308 86.3349 502.068 86.3349 497.033ZM240.316 499.889C240.316 499.881 240.316 499.889 240.316 499.881C240.316 489.704 237.283 480.379 231.303 472.159C223.631 461.619 210.256 457.186 190.409 458.599C170.855 459.987 152.154 457.979 132.357 455.851C130.371 455.64 128.385 455.429 126.393 455.215C110.58 454.306 99.3194 458.85 92.9195 468.73C88.0956 476.179 85.6475 485.701 85.6475 497.033C85.6475 502.114 86.1528 507.394 87.1442 512.721C90.3525 529.933 99.4352 545.734 113.408 558.407C128.722 572.311 146.228 581.59 161.432 583.869C176.687 586.156 191.125 580.096 206.876 564.797C214.716 557.173 240.316 529.96 240.316 499.889V499.889Z" fill="#062D7F" fill-opacity="0.03"/>
<path fill-rule="evenodd" clip-rule="evenodd" d="M95.5924 248.638C95.5924 243.293 98.2184 238.026 102.798 234.183C107.625 230.133 113.976 228.299 119.781 229.274C128.708 231.848 132.723 241.888 132.723 250.693C132.723 250.697 132.723 250.697 132.723 250.697C132.723 259.72 128.805 267.155 122.493 270.098C119.015 271.719 115.235 271.717 111.263 270.082C104.041 267.115 98.6185 259.899 96.6331 254.447C95.9421 252.551 95.5924 250.594 95.5924 248.638ZM133.41 250.697C133.41 250.697 133.41 250.697 133.41 250.693C133.406 241.634 129.24 231.293 119.933 228.61C113.893 227.592 107.335 229.485 102.356 233.664C97.6211 237.636 94.9082 243.091 94.9082 248.638C94.9082 250.674 95.2717 252.706 95.9884 254.678C98.0238 260.265 103.588 267.666 110.999 270.713C115.099 272.399 119.173 272.399 122.784 270.713C129.336 267.657 133.41 259.988 133.41 250.697V250.697Z" fill="#062D7F" fill-opacity="0.03"/>
<path fill-rule="evenodd" clip-rule="evenodd" d="M140.032 480.717C147.33 481.776 154.788 482.45 162 483.097C169.986 483.808 178.243 484.55 186.252 485.82C194.159 487.073 207.893 491.257 211.055 505.188C211.578 507.492 211.849 509.925 211.849 512.41C211.849 531.302 196.25 553.28 177.787 560.404C153.698 569.694 130.084 545.523 119.927 529.776C115.665 523.166 110.583 513.011 110.583 502.146C110.583 498.097 111.313 494.237 112.747 490.689C116.824 480.612 128.957 480.249 140.032 480.717ZM214.591 512.418C214.591 512.41 214.591 512.41 214.591 512.41C214.591 509.719 214.3 507.091 213.732 504.593C210.216 489.089 195.276 484.491 186.682 483.129C178.58 481.846 170.278 481.099 162.248 480.379C155.049 479.732 147.605 479.066 140.359 478.013L140.221 478C130.92 477.605 115.351 476.936 110.203 489.671C108.637 493.55 107.841 497.745 107.841 502.146C107.841 513.666 113.157 524.33 117.617 531.243C128.223 547.691 153.04 572.874 178.782 562.941C198.193 555.454 214.591 532.312 214.591 512.418V512.418Z" fill="#062D7F" fill-opacity="0.03"/>
<path fill-rule="evenodd" clip-rule="evenodd" d="M406.001 280.067C403.971 282.17 401.93 284.243 399.9 286.292C394.838 291.413 389.606 296.705 384.94 302.302C372.254 317.544 362.764 334.014 356.745 351.255C353.256 361.256 350.982 371.78 348.782 381.954C346.76 391.306 344.665 400.985 341.631 410.255C341.03 412.096 340.369 414.015 339.695 416.004C334.388 431.5 327.794 450.79 335.803 465.42C337.963 469.352 340.667 471.507 343.845 471.824C352.609 472.695 363.631 459.644 370.219 451.846C371.713 450.089 372.993 448.562 374.038 447.447C383.73 437.056 394.549 428.143 406.001 420.259V421.092C394.727 428.882 384.087 437.679 374.538 447.907C373.51 449.017 372.227 450.533 370.746 452.29C363.636 460.702 352.904 473.41 343.772 472.503C340.356 472.159 337.476 469.886 335.202 465.744C327.047 450.85 333.7 431.408 339.04 415.787C339.723 413.803 340.375 411.884 340.976 410.044C344.004 400.806 346.091 391.149 348.113 381.808C350.314 371.615 352.593 361.075 356.098 351.033C362.142 333.713 371.672 317.175 384.412 301.869C389.098 296.25 394.338 290.942 399.413 285.816C401.605 283.599 403.814 281.361 406.001 279.079V280.067" fill="#062D7F" fill-opacity="0.03"/>
<path fill-rule="evenodd" clip-rule="evenodd" d="M393.737 90.7951C389.506 81.9931 384.71 77.0832 378.642 75.3487C371.402 73.2768 363.728 75.2526 356.315 77.1622C355.503 77.3741 354.696 77.5817 353.889 77.7834C331.126 83.4896 312.621 82.277 297.317 74.0731C282.528 66.1469 273.377 52.5012 264.529 39.3049C255.535 25.8906 246.237 12.0203 231.019 4.21266C227.88 2.60029 224.615 1.21935 221.285 0L223.215 0C225.984 1.07049 228.7 2.25655 231.336 3.60799C246.713 11.4944 256.057 25.4413 265.103 38.9246C273.905 52.0552 283.004 65.6277 297.642 73.4749C312.789 81.593 331.132 82.7861 353.724 77.1229C354.525 76.9213 355.329 76.7129 356.141 76.5053C363.3 74.6612 371.407 72.5698 378.829 74.691C387.076 77.0499 391.634 84.8445 394.351 90.5006C399.391 101.004 403.04 112.066 406.001 123.125V125.815C402.929 113.956 399.134 102.049 393.737 90.7951" fill="#062D7F" fill-opacity="0.03"/>
<path fill-rule="evenodd" clip-rule="evenodd" d="M402.691 759.907C403.906 762.214 405.01 764.555 406.001 766.931V768.777C404.859 765.876 403.562 763.02 402.082 760.224C386.54 730.878 351.643 703.16 320.143 707.579C302.644 710.032 285.722 720.747 270.787 730.205C268.732 731.501 266.703 732.784 264.714 734.026C262.5 735.399 260.286 736.774 258.073 738.143C243.363 747.248 228.151 756.665 214.288 767.394C203.404 775.806 193.581 785.68 184.082 795.229C179.542 799.782 174.854 804.5 170.056 809.039C169.082 809.965 168.015 810.974 166.878 812H165.851C167.211 810.798 168.48 809.594 169.627 808.511C174.371 804.01 179.06 799.3 183.593 794.745C193.109 785.185 202.948 775.298 213.865 766.853C227.762 756.102 242.987 746.68 257.709 737.567C259.923 736.192 262.137 734.825 264.35 733.45C266.34 732.207 268.362 730.924 270.416 729.631C285.411 720.133 302.406 709.377 320.051 706.906C339.43 704.183 357.075 713.25 368.459 721.329C382.51 731.295 394.985 745.356 402.691 759.907" fill="#062D7F" fill-opacity="0.03"/>
<path fill-rule="evenodd" clip-rule="evenodd" d="M406 594.641C404.176 596.043 402.401 597.456 400.682 598.842C398.923 600.271 397.166 601.724 395.396 603.183C385.105 611.696 374.46 620.503 361.654 624.918C344.088 630.973 329.21 623.895 313.462 616.4L311.221 615.336C294.521 607.427 279.51 605.86 265.327 610.535C250.512 615.417 237.904 625.578 227.252 634.732C224.727 636.9 222.19 639.133 219.738 641.299C210.95 649.059 201.864 657.073 191.598 663.339C189.681 664.508 187.67 665.691 185.721 666.833C173.756 673.86 161.383 681.122 155.584 693.708C153.367 698.52 152.066 703.766 150.81 708.849C149.934 712.37 149.032 716.011 147.826 719.494C145.748 725.514 143.092 731.395 140.525 737.085C138.872 740.739 137.164 744.517 135.631 748.293C127.635 767.944 126.796 786.189 133.133 802.529C134.333 805.623 135.912 809.02 137.891 812H137.082C135.426 809.45 133.886 806.37 132.492 802.776C126.089 786.268 126.932 767.851 134.994 748.041C136.533 744.247 138.245 740.46 139.896 736.801C142.46 731.13 145.107 725.262 147.179 719.275C148.374 715.819 149.274 712.192 150.142 708.681C151.408 703.576 152.716 698.296 154.96 693.426C160.848 680.637 173.314 673.324 185.37 666.246C187.316 665.104 189.328 663.926 191.238 662.757C201.454 656.524 210.514 648.528 219.283 640.792C221.735 638.624 224.278 636.383 226.803 634.218C237.508 625.026 250.176 614.808 265.11 609.885C279.475 605.154 294.654 606.734 311.511 614.722L313.76 615.786C329.372 623.213 344.129 630.239 361.43 624.271C374.124 619.897 384.715 611.133 394.96 602.664C396.722 601.202 398.487 599.74 400.251 598.314C402.1 596.814 404.025 595.288 406 593.775V594.641" fill="#062D7F" fill-opacity="0.03"/>
<path fill-rule="evenodd" clip-rule="evenodd" d="M304.276 52.0254C289.968 45.2682 280.817 32.3993 271.969 19.956C267.066 13.0643 262.07 6.04317 256.162 0L257.101 0C262.849 5.96658 267.733 12.8261 272.524 19.563C281.326 31.9365 290.426 44.7304 304.568 51.411C333.854 65.2415 360.815 35.2278 378.655 15.3671L380.831 12.9582C384.88 8.4651 389.17 4.01453 393.915 0L394.984 0C390.023 4.12685 385.549 8.74253 381.34 13.4107L379.172 15.8197C361.192 35.8322 334.025 66.0738 304.276 52.0254" fill="#062D7F" fill-opacity="0.03"/>
<path fill-rule="evenodd" clip-rule="evenodd" d="M395.666 615.298C399.05 612.6 402.479 609.88 406.001 607.262V610.678C403.08 612.892 400.211 615.166 397.377 617.426C393.563 620.452 389.625 623.592 385.655 626.48C371.407 636.846 353.683 649.746 334.612 644.141C326.663 641.802 319.62 637.355 312.807 633.046C303.767 627.343 295.236 621.951 284.609 620.869C253.764 617.715 229.585 643.653 210.15 664.495L208.584 666.173C196.634 678.978 186.302 690.86 180.854 706.659C178.458 713.613 177.255 721.053 176.092 728.242C175.858 729.69 175.623 731.136 175.382 732.578C175.296 733.098 175.187 733.688 175.072 734.335C174.133 739.51 172.385 749.143 175.491 753.552C176.357 754.776 177.54 755.501 179.109 755.772C183.873 756.584 189.841 754.57 195.104 752.783C196.362 752.356 197.552 751.952 198.682 751.601C206.199 749.281 213.778 746.48 221.86 743.037C235.301 737.315 249.369 730.153 266.128 720.493C270.172 718.152 274.381 715.475 278.833 712.633C299.915 699.208 323.81 683.988 347.837 694.133C361.825 700.033 375.12 710.481 385.138 718.918C393.101 725.625 400.081 732.611 406.001 739.781V744.149C399.756 736.178 392.183 728.421 383.362 720.994C373.496 712.681 360.412 702.399 346.76 696.636C324.067 687.055 300.825 701.863 280.314 714.933C275.834 717.781 271.606 720.477 267.502 722.842C250.645 732.565 236.49 739.772 222.944 745.543C214.776 749.018 207.104 751.852 199.498 754.204C198.401 754.543 197.232 754.938 195.99 755.363C190.415 757.252 184.098 759.393 178.643 758.454C176.347 758.059 174.53 756.935 173.244 755.111C169.484 749.771 171.292 739.808 172.369 733.853C172.484 733.217 172.59 732.638 172.676 732.129C172.917 730.694 173.152 729.254 173.383 727.812C174.566 720.504 175.785 712.952 178.257 705.782C183.88 689.472 194.407 677.354 206.572 664.321L208.138 662.643C227.986 641.358 252.687 614.868 284.893 618.159C296.161 619.307 305.372 625.124 314.274 630.753C320.927 634.951 327.813 639.298 335.392 641.526C353.156 646.752 370.278 634.296 384.036 624.276C387.955 621.423 391.872 618.311 395.666 615.298" fill="#062D7F" fill-opacity="0.03"/>
<path fill-rule="evenodd" clip-rule="evenodd" d="M399.847 812C400.218 808.154 400.362 804.207 400.27 800.177C399.921 784.108 395.057 768.75 386.203 755.758C377.915 743.605 366.504 733.363 353.201 726.155C345.173 721.806 338.69 719.54 332.186 718.82C324.608 717.981 315.873 718.455 309.924 720.022C298.613 723.015 287.385 730.191 277.479 736.53C275.709 737.664 273.958 738.782 272.234 739.859C257.12 749.33 243.184 759.558 230.819 770.263C218.145 781.239 206.783 792.883 197.052 804.849C195.136 807.209 193.306 809.594 191.568 812H190.729C192.559 809.45 194.489 806.917 196.517 804.427C206.274 792.42 217.663 780.757 230.37 769.749C242.761 759.022 256.724 748.767 271.868 739.285C273.587 738.208 275.338 737.09 277.108 735.953C287.055 729.598 298.329 722.388 309.753 719.367C315.768 717.775 324.608 717.294 332.259 718.146C338.861 718.872 345.416 721.159 353.526 725.552C366.934 732.822 378.424 743.131 386.772 755.382C395.698 768.479 400.608 783.961 400.957 800.166C400.979 800.943 400.984 801.723 400.984 802.497C400.984 805.723 400.825 808.895 400.535 812H399.847" fill="#062D7F" fill-opacity="0.03"/>
<path fill-rule="evenodd" clip-rule="evenodd" d="M388.263 812C388.382 810.863 388.488 809.721 388.561 808.576C389.454 794.006 386.328 779.812 379.51 767.535C368.329 747.4 345.463 728.077 319.579 730.31C305.28 731.547 292.604 738.368 282.105 744.875C268.882 753.062 256.288 762.603 244.671 773.23C233.384 783.553 222.805 794.886 213.223 806.906C212.001 808.444 210.639 810.157 209.215 812H208.353C209.893 809.992 211.373 808.135 212.687 806.481C222.282 794.437 232.888 783.077 244.208 772.729C255.851 762.07 268.48 752.508 281.742 744.293C292.315 737.745 305.077 730.887 319.519 729.636C331.315 728.619 343.574 732.107 354.966 739.74C365.121 746.539 374.056 756.294 380.108 767.205C386.222 778.213 389.395 790.734 389.395 803.693C389.395 805.326 389.349 806.971 389.24 808.617C389.175 809.745 389.07 810.877 388.959 812H388.263" fill="#062D7F" fill-opacity="0.03"/>
<path fill-rule="evenodd" clip-rule="evenodd" d="M378.465 812C378.492 811.822 378.517 811.648 378.544 811.472C380.07 798.778 377.374 785.245 370.957 773.371C359.064 751.352 337.467 738.576 315.938 740.823C291.608 743.367 270.91 761.291 253.42 777.883C244.116 786.712 234.898 796.808 225.223 808.755C224.384 809.792 223.518 810.885 222.652 812H221.78C222.765 810.725 223.743 809.502 224.695 808.325C234.382 796.358 243.62 786.235 252.944 777.393C270.521 760.714 291.324 742.715 315.865 740.149C337.673 737.87 359.532 750.784 371.566 773.046C376.857 782.852 379.648 793.768 379.648 804.441C379.648 806.825 379.502 809.204 379.226 811.556C379.204 811.702 379.177 811.854 379.158 812H378.465" fill="#062D7F" fill-opacity="0.03"/>
<path fill-rule="evenodd" clip-rule="evenodd" d="M206.132 702.618C206.132 692.355 212.072 682.305 218.495 672.98C238.056 644.576 258.388 630.726 278.954 631.812C291.732 633.39 304.963 641.477 312.62 652.415C315.218 656.129 317.881 660.562 317.881 665.326C317.881 666.438 317.73 667.54 317.446 668.604C315.805 674.626 310.541 678.973 305.894 682.819C284.497 700.515 258.904 719.023 231.018 722.415C222.005 723.511 210.328 720.764 207.071 709.404C206.446 707.23 206.132 704.949 206.132 702.618ZM318.561 665.326V665.326C318.561 660.378 315.846 655.825 313.183 652.025C305.417 640.936 292.003 632.735 279.011 631.13C258.17 630.034 237.633 643.989 217.927 672.596C211.444 682.012 205.444 692.162 205.444 702.618C205.444 705.008 205.769 707.355 206.41 709.588C209.786 721.365 221.82 724.217 231.097 723.089C259.168 719.678 284.855 701.102 306.283 683.379C311.055 679.436 316.414 675.007 318.106 668.785C318.409 667.659 318.561 666.498 318.561 665.326V665.326Z" fill="#062D7F" fill-opacity="0.03"/>
<path fill-rule="evenodd" clip-rule="evenodd" d="M367.289 812C368.572 802.602 367.284 792.856 363.497 783.934C355.196 764.4 336.999 751.628 318.204 752.164C296.491 752.778 277.52 768.677 261.825 784.154C253.743 792.122 245.583 801.241 236.893 812H233.384C233.708 811.597 234.031 811.188 234.355 810.785C243.256 799.728 251.609 790.384 259.896 782.216C275.966 766.371 295.46 750.082 318.125 749.441C338.041 748.872 357.291 762.314 366.02 782.879C369.008 789.908 370.516 797.43 370.516 804.917C370.516 807.288 370.361 809.653 370.058 812H367.289" fill="#062D7F" fill-opacity="0.03"/>
<path fill-rule="evenodd" clip-rule="evenodd" d="M357.291 812C358.476 804.765 358.105 797.054 355.039 789.315C349.065 774.247 333.212 760.219 314.466 762.557C294.78 765.018 279.025 778.873 264.937 793.484C259.75 798.862 254.054 805.06 248.569 812H247.703C253.294 804.871 259.135 798.513 264.442 793.015C278.616 778.313 294.482 764.368 314.379 761.883C333.469 759.504 349.606 773.752 355.672 789.064C357.743 794.271 358.606 799.465 358.606 804.513C358.606 807.05 358.381 809.556 357.986 812H357.291" fill="#062D7F" fill-opacity="0.03"/>
<path fill-rule="evenodd" clip-rule="evenodd" d="M236.496 685.68C236.496 679.468 240.018 672.821 241.538 670.258C248.318 658.76 261.68 648.271 276.223 650.764C283.87 653.03 288.1 658.105 288.1 665.055C288.1 671.083 284.722 677.777 279.29 682.535C265.037 694.996 253.069 699.571 243.726 696.122C238.928 694.35 236.496 690.834 236.496 685.68ZM288.785 665.055V665.055C288.785 657.78 284.378 652.467 276.383 650.101C261.475 647.546 247.848 658.21 240.943 669.914C239.397 672.523 235.809 679.298 235.809 685.68C235.809 691.15 238.393 694.877 243.487 696.756C253.083 700.304 265.281 695.684 279.739 683.044C285.318 678.166 288.785 671.275 288.785 665.055V665.055Z" fill="#062D7F" fill-opacity="0.03"/>
<path fill-rule="evenodd" clip-rule="evenodd" d="M343.514 812C344.156 808.273 344.15 804.716 343.495 801.287C340.772 786.974 328.303 776.672 314.499 777.322C298.573 778.066 285.475 789.889 274.765 801.355C271.617 804.724 268.381 808.273 265.202 812H264.304C267.608 808.1 270.984 804.4 274.262 800.892C285.067 789.326 298.297 777.401 314.466 776.64C328.614 775.971 341.379 786.519 344.169 801.157C344.505 802.941 344.678 804.757 344.678 806.608C344.678 808.373 344.518 810.162 344.21 812H343.514" fill="#062D7F" fill-opacity="0.03"/>
<path fill-rule="evenodd" clip-rule="evenodd" d="M252.211 258.049C252.211 257.474 252.217 256.902 252.224 256.328C252.475 238.181 258.072 219.732 268.856 201.493C281.166 180.668 294.997 171.771 309.952 175.042C330.966 181.844 366.978 198.368 371.731 232.535C372.029 234.689 372.181 236.893 372.181 239.08C372.181 255.164 364.085 269.976 355.337 283.589C352.444 288.09 349.575 292.745 346.806 297.244C339.687 308.809 332.333 320.765 323.672 331.437C323.076 332.165 322.467 332.928 321.834 333.719C313.971 343.517 303.204 356.939 290.301 356.655C273.812 356.287 267.587 334.636 263.464 320.31C263.114 319.073 262.777 317.898 262.453 316.81C258.059 302.064 252.211 279.932 252.211 258.049ZM372.868 239.08C372.868 239.08 372.868 239.083 372.868 239.08C372.868 236.86 372.717 234.626 372.411 232.442C367.609 197.909 331.329 181.247 310.138 174.387C294.819 171.034 280.744 180.04 268.261 201.147C257.418 219.491 251.788 238.053 251.537 256.317C251.226 278.825 257.273 301.829 261.793 317.002C262.116 318.09 262.453 319.262 262.81 320.494C266.987 335.015 273.298 356.958 290.288 357.334C303.529 357.629 314.418 344.053 322.367 334.141C323.003 333.353 323.612 332.595 324.205 331.867C332.896 321.16 340.264 309.185 347.393 297.601C350.162 293.1 353.023 288.452 355.911 283.957C364.721 270.257 372.868 255.34 372.868 239.08V239.08Z" fill="#062D7F" fill-opacity="0.03"/>
<path fill-rule="evenodd" clip-rule="evenodd" d="M317.043 32.545C304.619 31.8737 295.519 23.9572 288.983 17.1346C284.054 11.987 279.455 6.24157 275.238 0L276.072 0C280.197 6.06293 284.676 11.65 289.481 16.6655C295.936 23.3956 304.895 31.2098 317.083 31.8642C328.143 32.4589 337.521 27.2946 343.435 22.857C351.986 16.4444 358.891 8.11107 365.546 0L366.431 0C359.646 8.27969 352.614 16.8271 343.844 23.3991C337.838 27.9057 328.316 33.1491 317.043 32.545" fill="#062D7F" fill-opacity="0.03"/>
<path fill-rule="evenodd" clip-rule="evenodd" d="M325.092 812C325.171 808.411 324.14 804.941 322.096 802.212C319.652 798.948 315.957 797.1 311.702 797.013C301.062 796.788 292.599 805.076 286.195 812H285.264C291.806 804.889 300.543 796.093 311.716 796.331C316.19 796.423 320.074 798.366 322.645 801.804C324.708 804.559 325.785 808.021 325.785 811.615C325.785 811.743 325.772 811.873 325.772 812H325.092" fill="#062D7F" fill-opacity="0.03"/>
<path fill-rule="evenodd" clip-rule="evenodd" d="M266.682 261.068C266.682 242.708 272.808 219.101 290.001 207.906C296.074 203.958 303.583 202.306 311.134 203.264C326.708 205.557 340.223 213.318 348.205 224.552C352.793 231.002 355.112 238.363 355.112 246.432C355.112 246.434 355.112 246.434 355.112 246.434C355.112 253.529 353.334 261.065 349.831 268.833C343.157 283.615 332.281 299.845 319.977 313.362C308.631 325.818 298.651 329.726 290.306 324.981C281.973 320.239 277.452 310.005 274.137 300.621C270.734 291.01 268.394 280.711 267.178 270.005C266.847 267.125 266.682 264.118 266.682 261.068ZM355.8 246.434C355.8 246.434 355.8 246.434 355.8 246.432C355.8 238.218 353.434 230.724 348.768 224.162C340.68 212.773 326.995 204.909 311.226 202.59C303.501 201.612 295.836 203.297 289.624 207.338C272.207 218.681 265.995 242.529 265.995 261.068C265.995 264.144 266.16 267.178 266.49 270.082C267.713 280.836 270.065 291.189 273.487 300.846C276.852 310.352 281.437 320.718 289.968 325.574C298.508 330.43 309.058 326.362 320.486 313.816C332.836 300.25 343.758 283.959 350.454 269.113C354 261.253 355.8 253.624 355.8 246.434V246.434Z" fill="#062D7F" fill-opacity="0.03"/>
<path fill-rule="evenodd" clip-rule="evenodd" d="M296.843 0C301.745 5.20086 307.534 8.5869 313.684 9.74048C324.134 11.7028 333.689 6.09271 340.621 0L341.649 0C334.555 6.38963 324.567 12.4764 313.559 10.4112C307.077 9.19509 300.998 5.57032 295.909 0L296.843 0" fill="#062D7F" fill-opacity="0.03"/>
<path fill-rule="evenodd" clip-rule="evenodd" d="M314.604 235.895C326.07 238.409 330.154 248.447 330.154 257.014C330.154 259.483 329.835 261.97 329.215 264.412C326.725 274.129 317.755 289.17 306.43 290.591C302.993 291.024 299.915 290.098 297.279 287.843C290.531 282.075 288.474 269.457 288.336 263.593C288.331 263.289 288.325 262.988 288.325 262.687C288.325 254.724 290.796 247.703 295.479 242.377C300.508 236.651 306.801 236.312 314.087 235.921L314.604 235.895ZM330.842 257.014V257.014C330.842 248.173 326.606 237.802 314.704 235.217L314.658 235.208L314.049 235.24C306.917 235.624 300.186 235.984 294.959 241.931C290.174 247.38 287.638 254.559 287.638 262.687C287.638 262.995 287.643 263.302 287.651 263.609C287.795 269.58 289.895 282.435 296.83 288.36C299.623 290.745 302.882 291.722 306.517 291.267C318.158 289.803 327.339 274.48 329.875 264.581C330.517 262.082 330.842 259.539 330.842 257.014V257.014Z" fill="#062D7F" fill-opacity="0.03"/>
<path fill-rule="evenodd" clip-rule="evenodd" d="M406 624.358C396.96 630.661 388.417 637.653 380.108 644.465L379.158 645.245C378.484 645.8 377.791 646.363 377.071 646.942C369.484 653.081 360.033 660.714 359.472 670.674C358.831 682.137 370.269 692.13 377.104 698.09C380.652 701.189 384.287 704.296 387.8 707.301C393.82 712.449 399.999 717.735 406 723.181V724.106C399.861 718.523 393.525 713.096 387.351 707.818C383.838 704.811 380.203 701.698 376.654 698.604C369.722 692.557 358.111 682.429 358.79 670.633C359.367 660.378 368.94 652.634 376.633 646.414C377.355 645.84 378.048 645.272 378.722 644.723L379.675 643.943C388.112 637.017 396.789 629.914 406 623.524V624.358" fill="#062D7F" fill-opacity="0.03"/>
<path fill-rule="evenodd" clip-rule="evenodd" d="M406 293.782C405.992 293.784 405.987 293.787 405.987 293.795C383.175 314.084 369.279 335.83 364.675 358.422C361.146 375.745 360.921 389.882 363.979 401.642C365.557 407.7 368.307 411.597 372.148 413.229C373.826 413.941 382.331 417.325 385.035 413.941L385.113 413.844L385.232 413.817C392.408 412.374 399.301 409.843 406 406.899V407.646C399.385 410.536 392.586 413.018 385.489 414.466C382.482 417.988 374.327 414.894 371.875 413.857C367.834 412.139 364.951 408.084 363.319 401.81C360.225 389.952 360.45 375.715 364.007 358.287C368.632 335.545 382.609 313.676 405.524 293.286C405.684 293.148 405.844 293.01 406 292.872V293.782" fill="#062D7F" fill-opacity="0.03"/>
<path fill-rule="evenodd" clip-rule="evenodd" d="M406 435.213C389.44 451.648 376.825 473.125 370.337 496.067C367.183 507.216 364.78 522.368 371.208 531.21C374.532 535.768 379.937 538.248 387.286 538.578C393.557 538.862 399.81 538.326 406 537.387V538.075C399.81 539.008 393.544 539.542 387.253 539.257C379.686 538.922 374.102 536.345 370.653 531.606C364.057 522.546 366.482 507.175 369.674 495.883C376.256 472.608 389.116 450.822 406 434.25V435.213" fill="#062D7F" fill-opacity="0.03"/>
<path fill-rule="evenodd" clip-rule="evenodd" d="M406 305.261C389.784 318.859 378.728 336.433 374.743 355.025C372.621 364.937 371.539 378.793 378.443 388.466C384.866 397.471 396.161 397.45 404.506 395.845C405.001 395.745 405.505 395.639 406 395.528V396.226C405.545 396.326 405.088 396.421 404.633 396.511C396.094 398.156 384.525 398.162 377.883 388.859C370.838 378.982 371.923 364.932 374.069 354.882C378.121 335.973 389.427 318.115 406 304.365V305.261" fill="#062D7F" fill-opacity="0.03"/>
<path fill-rule="evenodd" clip-rule="evenodd" d="M406.001 317.687C393.902 328.63 385.944 343.135 384.788 356.855C384.109 364.983 386.64 372.064 391.918 376.798C395.713 380.203 400.582 382.068 406.001 382.287V382.972C400.409 382.75 395.382 380.825 391.455 377.304C386.017 372.424 383.4 365.146 384.109 356.801C385.292 342.737 393.517 327.875 406.001 316.772V317.687" fill="#062D7F" fill-opacity="0.03"/>
<path fill-rule="evenodd" clip-rule="evenodd" d="M406 641.036C396.129 648.793 388.529 658.976 386.547 667.607C383.329 681.641 394.833 693.932 406 703.032V703.917C394.554 694.674 382.528 682.053 385.879 667.456C387.914 658.559 395.804 648.065 406 640.175V641.036" fill="#062D7F" fill-opacity="0.03"/>
<path fill-rule="evenodd" clip-rule="evenodd" d="M406 453.21C400.549 462.155 396.652 471.637 394.86 481.075C391.517 498.703 395.268 509.971 406 514.578V515.317C394.727 510.645 390.748 499.088 394.186 480.948C396.034 471.168 400.105 461.224 406 451.753V453.21" fill="#062D7F" fill-opacity="0.03"/>
<path fill-rule="evenodd" clip-rule="evenodd" d="M406 334.504C405.431 335.332 404.896 336.182 404.395 337.051C401.269 342.467 399.477 348.437 399.477 353.431C399.477 357.491 400.714 362.558 406 365.495V366.288C400.132 363.243 398.792 357.778 398.792 353.431C398.792 348.324 400.614 342.228 403.799 336.712C404.473 335.548 405.207 334.422 406 333.332V334.504" fill="#062D7F" fill-opacity="0.03"/>
</g>
<defs>
<clipPath id="clip0">
<rect width="812" height="406" fill="white" transform="translate(0 812) rotate(-90)"/>
</clipPath>
</defs>
</svg>
