<svg width="64" height="63" viewBox="0 0 64 63" fill="none" xmlns="http://www.w3.org/2000/svg">
<path d="M47.7877 6.25099V0H16.5327V6.25099H0.905273V28.1294C0.905273 31.5675 3.71822 34.3804 7.15626 34.3804H16.8453C18.0955 40.5064 22.9087 45.3196 29.0347 46.5698V53.3834C19.6582 54.8211 19.6582 62.5099 19.6582 62.5099H44.6622C44.6622 62.5099 44.6622 54.8211 35.2857 53.3834V46.5698C41.4117 45.3196 46.2249 40.5064 47.4751 34.3804H57.1641C60.6022 34.3804 63.4151 31.5675 63.4151 28.1294V6.25099H47.7877ZM7.15626 28.1294V12.502H16.5327V28.1294H7.15626ZM57.1641 28.1294H47.7877V12.502H57.1641V28.1294Z" fill="#FF9344"/>
</svg>
