<svg width="80" height="24" viewBox="0 0 80 24" fill="none" xmlns="http://www.w3.org/2000/svg">
<rect x="0.3" y="0.3" width="79.4" height="23.4" rx="3.3" fill="black"/>
<path fill-rule="evenodd" clip-rule="evenodd" d="M6.74986 4.55541C6.57526 4.74021 6.47266 5.02641 6.47266 5.39781V18.6566C6.47266 19.028 6.57526 19.3142 6.74986 19.499L6.79426 19.5422L14.2217 12.1148V11.9396L6.79426 4.51221L6.74986 4.55541Z" fill="#00D7FE"/>
<mask id="mask0" mask-type="alpha" maskUnits="userSpaceOnUse" x="14" y="9" width="7" height="6">
<path d="M16.6947 14.5911L14.2197 12.1143V11.9391L16.6959 9.46289L19.6851 11.1609C20.5227 11.6373 20.5227 12.4161 19.6851 12.8919L16.7517 14.5587L16.6947 14.5911Z" fill="white"/>
</mask>
<g mask="url(#mask0)">
<path fill-rule="evenodd" clip-rule="evenodd" d="M16.6947 14.5911L14.2197 12.1143V11.9391L16.6959 9.46289L19.6851 11.1609C20.5227 11.6373 20.5227 12.4161 19.6851 12.8919L16.7517 14.5587L16.6947 14.5911Z" fill="url(#paint0_linear)"/>
</g>
<mask id="mask1" mask-type="alpha" maskUnits="userSpaceOnUse" x="6" y="12" width="11" height="8">
<path d="M16.7538 14.5589L14.2218 12.0269L6.75 19.4987C7.0266 19.7909 7.4826 19.8269 7.9962 19.5353L16.7538 14.5589Z" fill="white"/>
</mask>
<g mask="url(#mask1)">
<path fill-rule="evenodd" clip-rule="evenodd" d="M16.7538 14.5589L14.2218 12.0269L6.75 19.4987C7.0266 19.7909 7.4826 19.8269 7.9962 19.5353L16.7538 14.5589Z" fill="url(#paint1_linear)"/>
</g>
<mask id="mask2" mask-type="alpha" maskUnits="userSpaceOnUse" x="6" y="4" width="11" height="9">
<path d="M16.7538 9.49525L7.9962 4.51885C7.4826 4.22725 7.0266 4.26325 6.75 4.55545L14.2218 12.0273L16.7538 9.49525Z" fill="white"/>
</mask>
<g mask="url(#mask2)">
<path fill-rule="evenodd" clip-rule="evenodd" d="M16.7538 9.49525L7.9962 4.51885C7.4826 4.22725 7.0266 4.26325 6.75 4.55545L14.2218 12.0273L16.7538 9.49525Z" fill="url(#paint2_linear)"/>
</g>
<path fill-rule="evenodd" clip-rule="evenodd" d="M63.4251 18.5985H64.5447V11.0979H63.4251V18.5985ZM73.5093 13.7997L72.2259 17.0517H72.1875L70.8555 13.7997H69.6495L71.6469 18.3447L70.5081 20.8731H71.6763L74.7543 13.7997H73.5093ZM67.1601 17.7465C66.7929 17.7465 66.2817 17.5635 66.2817 17.1099C66.2817 16.5309 66.9189 16.3089 67.4685 16.3089C67.9611 16.3089 68.1921 16.4151 68.4915 16.5597C68.4045 17.2545 67.8063 17.7465 67.1601 17.7465ZM67.2951 13.6359C66.4845 13.6359 65.6451 13.9929 65.2977 14.7843L66.2913 15.1989C66.5037 14.7843 66.8991 14.6487 67.3143 14.6487C67.8933 14.6487 68.4819 14.9961 68.4915 15.6141V15.6909C68.2887 15.5751 67.8549 15.4017 67.3239 15.4017C66.2529 15.4017 65.1621 15.9903 65.1621 17.0901C65.1621 18.0939 66.0405 18.7407 67.0245 18.7407C67.7775 18.7407 68.1921 18.4029 68.4531 18.0069H68.4915V18.5859H69.5721V15.7107C69.5721 14.3787 68.5785 13.6359 67.2951 13.6359ZM60.3759 14.7129H58.7835V12.1419H60.3759C61.2129 12.1419 61.6881 12.8349 61.6881 13.4271C61.6881 14.0085 61.2129 14.7129 60.3759 14.7129ZM60.3471 11.0979H57.6645V18.5985H58.7835V15.7569H60.3471C61.5879 15.7569 62.8077 14.8581 62.8077 13.4271C62.8077 11.9961 61.5879 11.0979 60.3471 11.0979ZM45.7185 17.7477C44.9451 17.7477 44.2977 17.1003 44.2977 16.2111C44.2977 15.3123 44.9451 14.6547 45.7185 14.6547C46.4823 14.6547 47.0811 15.3123 47.0811 16.2111C47.0811 17.1003 46.4823 17.7477 45.7185 17.7477ZM47.0037 14.2197H46.9653C46.7139 13.9203 46.2309 13.6497 45.6219 13.6497C44.3457 13.6497 43.1763 14.7705 43.1763 16.2111C43.1763 17.6415 44.3457 18.7533 45.6219 18.7533C46.2309 18.7533 46.7139 18.4827 46.9653 18.1731H47.0037V18.5403C47.0037 19.5171 46.4823 20.0391 45.6411 20.0391C44.9547 20.0391 44.5293 19.5459 44.3553 19.1301L43.3791 19.5363C43.6593 20.2131 44.4039 21.0441 45.6411 21.0441C46.9557 21.0441 48.0675 20.2707 48.0675 18.3861V13.8039H47.0037V14.2197ZM48.8409 18.5985H49.9623V11.0973H48.8409V18.5985ZM51.6147 16.1241C51.5859 15.1383 52.3785 14.6355 52.9485 14.6355C53.3937 14.6355 53.7705 14.8575 53.8959 15.1767L51.6147 16.1241ZM55.0947 15.2733C54.8823 14.7033 54.2343 13.6497 52.9101 13.6497C51.5955 13.6497 50.5035 14.6835 50.5035 16.2015C50.5035 17.6319 51.5859 18.7533 53.0355 18.7533C54.2055 18.7533 54.8823 18.0381 55.1625 17.6223L54.2925 17.0421C54.0027 17.4675 53.6061 17.7477 53.0355 17.7477C52.4655 17.7477 52.0593 17.4867 51.7983 16.9749L55.2105 15.5637L55.0947 15.2733ZM27.9099 14.4327V15.5151H30.5001C30.4227 16.1241 30.2199 16.5687 29.9109 16.8783C29.5335 17.2551 28.9437 17.6703 27.9099 17.6703C26.3151 17.6703 25.0677 16.3851 25.0677 14.7903C25.0677 13.1949 26.3151 11.9097 27.9099 11.9097C28.7703 11.9097 29.3985 12.2481 29.8623 12.6831L30.6261 11.9193C29.9781 11.3007 29.1183 10.8267 27.9099 10.8267C25.7253 10.8267 23.8887 12.6057 23.8887 14.7903C23.8887 16.9749 25.7253 18.7533 27.9099 18.7533C29.0889 18.7533 29.9781 18.3669 30.6741 17.6415C31.3893 16.9263 31.6119 15.9213 31.6119 15.1089C31.6119 14.8575 31.5927 14.6259 31.5537 14.4327H27.9099ZM34.5573 17.7477C33.7839 17.7477 33.1167 17.1099 33.1167 16.2015C33.1167 15.2829 33.7839 14.6547 34.5573 14.6547C35.3301 14.6547 35.9973 15.2829 35.9973 16.2015C35.9973 17.1099 35.3301 17.7477 34.5573 17.7477ZM34.5573 13.6497C33.1455 13.6497 31.9953 14.7225 31.9953 16.2015C31.9953 17.6703 33.1455 18.7533 34.5573 18.7533C35.9685 18.7533 37.1187 17.6703 37.1187 16.2015C37.1187 14.7225 35.9685 13.6497 34.5573 13.6497ZM40.1451 17.7477C39.3717 17.7477 38.7045 17.1099 38.7045 16.2015C38.7045 15.2829 39.3717 14.6547 40.1451 14.6547C40.9185 14.6547 41.5851 15.2829 41.5851 16.2015C41.5851 17.1099 40.9185 17.7477 40.1451 17.7477ZM40.1451 13.6497C38.7339 13.6497 37.5837 14.7225 37.5837 16.2015C37.5837 17.6703 38.7339 18.7533 40.1451 18.7533C41.5563 18.7533 42.7065 17.6703 42.7065 16.2015C42.7065 14.7225 41.5563 13.6497 40.1451 13.6497Z" fill="#FFFFFE"/>
<path d="M27.1688 7.52324C27.0387 7.70957 26.8567 7.84932 26.6229 7.94248C26.3909 8.03389 26.1202 8.07959 25.8108 8.07959C25.4979 8.07959 25.2202 8.00664 24.9776 7.86074C24.7351 7.71309 24.547 7.50391 24.4134 7.2332C24.2815 6.9625 24.2139 6.64873 24.2104 6.29189V5.95703C24.2104 5.37871 24.3448 4.93047 24.6138 4.6123C24.8845 4.29414 25.2642 4.13506 25.7528 4.13506C26.1536 4.13506 26.4762 4.23789 26.7205 4.44355C26.9648 4.64746 27.1143 4.9375 27.1688 5.31367H26.6625C26.5676 4.80566 26.2652 4.55166 25.7555 4.55166C25.4162 4.55166 25.1587 4.67119 24.9829 4.91025C24.8089 5.14756 24.721 5.49209 24.7192 5.94385V6.25762C24.7192 6.68828 24.8177 7.03105 25.0146 7.28594C25.2114 7.53906 25.4777 7.66562 25.8135 7.66562C26.0033 7.66562 26.1694 7.64453 26.3118 7.60234C26.4542 7.56016 26.572 7.48896 26.6651 7.38877V6.52656H25.7766V6.11523H27.1688V7.52324ZM30.0232 6.25234H28.3594V7.61289H30.2921V8.02686H27.8531V4.18779H30.2657V4.60439H28.3594V5.83838H30.0232V6.25234ZM33.4656 4.60439H32.2316V8.02686H31.728V4.60439H30.4966V4.18779H33.4656V4.60439ZM35.4882 8.02686H34.982V4.18779H35.4882V8.02686ZM38.8278 4.60439H37.5938V8.02686H37.0902V4.60439H35.8588V4.18779H38.8278V4.60439ZM43.2604 6.23125C43.2604 6.60742 43.1972 6.93613 43.0706 7.21738C42.944 7.49687 42.7647 7.71045 42.5327 7.85811C42.3007 8.00576 42.03 8.07959 41.7206 8.07959C41.4182 8.07959 41.1502 8.00576 40.9164 7.85811C40.6826 7.70869 40.5007 7.49687 40.3706 7.22266C40.2423 6.94668 40.1764 6.62764 40.1728 6.26553V5.98867C40.1728 5.61953 40.237 5.29346 40.3653 5.01045C40.4936 4.72744 40.6747 4.51123 40.9085 4.36182C41.144 4.21064 41.413 4.13506 41.7153 4.13506C42.0229 4.13506 42.2936 4.20977 42.5274 4.35918C42.763 4.50684 42.944 4.72217 43.0706 5.00518C43.1972 5.28643 43.2604 5.61426 43.2604 5.98867V6.23125ZM42.7568 5.9834C42.7568 5.52812 42.6654 5.1792 42.4826 4.93662C42.2998 4.69229 42.044 4.57012 41.7153 4.57012C41.3954 4.57012 41.1431 4.69229 40.9586 4.93662C40.7758 5.1792 40.6817 5.5167 40.6764 5.94912V6.23125C40.6764 6.67246 40.7687 7.01963 40.9533 7.27275C41.1396 7.52412 41.3954 7.6498 41.7206 7.6498C42.0475 7.6498 42.3007 7.53115 42.48 7.29385C42.6593 7.05479 42.7515 6.71289 42.7568 6.26816V5.9834ZM46.8083 8.02686H46.2994L44.3667 5.06846V8.02686H43.8578V4.18779H44.3667L46.3047 7.15937V4.18779H46.8083V8.02686Z" fill="white"/>
<rect x="0.3" y="0.3" width="79.4" height="23.4" rx="3.3" stroke="#A6A6A6" stroke-width="0.6"/>
<defs>
<linearGradient id="paint0_linear" x1="19.1402" y1="12.0269" x2="14.2197" y2="12.0269" gradientUnits="userSpaceOnUse">
<stop stop-color="#FFBC00"/>
<stop offset="1" stop-color="#FFDA03"/>
</linearGradient>
<linearGradient id="paint1_linear" x1="15.3778" y1="14.4093" x2="8.95566" y2="19.7029" gradientUnits="userSpaceOnUse">
<stop stop-color="#E22652"/>
<stop offset="1" stop-color="#FF3A44"/>
</linearGradient>
<linearGradient id="paint2_linear" x1="7.8814" y1="5.45495" x2="12.1631" y2="9.21991" gradientUnits="userSpaceOnUse">
<stop stop-color="#0ED574"/>
<stop offset="1" stop-color="#07F076"/>
</linearGradient>
</defs>
</svg>
