
<svg width="311" height="311" viewBox="0 0 311 311" fill="none" xmlns="http://www.w3.org/2000/svg">
  <g clip-path="url(#clip0)">
    <rect width="311" height="311" rx="24" fill="#FFE5E2"/>
    <path fill-rule="evenodd" clip-rule="evenodd" d="M254.294 158.449L254.294 136.949L262.294 136.949L262.294 158.449L254.294 158.449Z" fill="#0080FF" fill-opacity="0.9"/>
    <path fill-rule="evenodd" clip-rule="evenodd" d="M182.294 151.949L182.294 143.949L190.294 143.949L190.294 151.949L182.294 151.949Z" fill="#FFD500" fill-opacity="0.9"/>
    <path d="M222.294 147.949C222.294 150.158 220.503 151.949 218.294 151.949C216.085 151.949 214.294 150.158 214.294 147.949C214.294 145.74 216.085 143.949 218.294 143.949C220.503 143.949 222.294 145.74 222.294 147.949Z" fill="#99FF66" fill-opacity="0.9"/>
    <path opacity="0.91" fill-rule="evenodd" clip-rule="evenodd" d="M17.8948 -4.98411L14.7385 2.10501L7.64941 -1.05127L10.8057 -8.14038L17.8948 -4.98411Z" fill="#FFD500" fill-opacity="0.9"/>
    <path opacity="0.82" fill-rule="evenodd" clip-rule="evenodd" d="M60.6234 9.91366L39.1533 2.93761L41.749 -5.05127L63.2191 1.92479L60.6234 9.91366Z" fill="#0080FF" fill-opacity="0.9"/>
    <path opacity="0.75" fill-rule="evenodd" clip-rule="evenodd" d="M73.2079 7.78663L91.1471 11.2737L89.8496 17.9487L71.9104 14.4617L73.2079 7.78663Z" fill="#0080FF" fill-opacity="0.9"/>
    <path opacity="0.75" d="M133.165 6.05222C135.254 6.42048 136.648 8.41213 136.28 10.5007C135.912 12.5892 133.92 13.9838 131.831 13.6155C129.743 13.2473 128.348 11.2556 128.717 9.16707C129.085 7.07851 131.077 5.68395 133.165 6.05222Z" fill="#99FF66" fill-opacity="0.9"/>
    <path fill-rule="evenodd" clip-rule="evenodd" d="M186.293 -15.4031L184.689 7.54585L176.149 6.94873L177.754 -16.0002L186.293 -15.4031Z" fill="#0080FF" fill-opacity="0.9"/>
    <path opacity="0.91" d="M207.822 24.6328C207.182 26.4918 205.156 27.48 203.297 26.8398C201.438 26.1997 200.45 24.1738 201.09 22.3148C201.73 20.4558 203.756 19.4676 205.615 20.1078C207.474 20.7479 208.462 22.7738 207.822 24.6328Z" fill="#99FF66" fill-opacity="0.9"/>
    <path opacity="0.97" fill-rule="evenodd" clip-rule="evenodd" d="M229.637 12.3811L235.44 15.8681L238.927 10.0648L244.731 13.5517L248.218 7.74842L256.073 12.4682L253.607 16.5718L249.856 14.3177L246.369 20.121L240.565 16.634L237.078 22.4373L231.275 18.9503L229.021 22.7019L224.917 20.2362L229.637 12.3811Z" fill="#F50000" fill-opacity="0.9"/>
    <path opacity="0.83" fill-rule="evenodd" clip-rule="evenodd" d="M249.971 -3.92604L255.647 -3.72781L255.449 1.94873L249.773 1.7505L249.971 -3.92604Z" fill="#FFD500" fill-opacity="0.9"/>
    <path opacity="0.74" fill-rule="evenodd" clip-rule="evenodd" d="M314.99 23.3887H305.55V13.9487H314.99V23.3887Z" fill="#FFD500" fill-opacity="0.9"/>
    <path opacity="0.71" fill-rule="evenodd" clip-rule="evenodd" d="M18.1997 62.9409L19.9986 42.3795L27.6494 43.0488L25.8505 63.6103L18.1997 62.9409Z" fill="#0080FF" fill-opacity="0.9"/>
    <path opacity="0.75" fill-rule="evenodd" clip-rule="evenodd" d="M43.5705 26.0117L41.6783 30.941L36.749 29.0488L38.6412 24.1195L43.5705 26.0117Z" fill="#FFD500" fill-opacity="0.9"/>
    <path opacity="0.94" fill-rule="evenodd" clip-rule="evenodd" d="M82.6681 33.1209L77.3093 33.7789L77.9672 39.1378L72.6084 39.7958L73.2663 45.1547L66.0128 46.0453L65.5475 42.256L69.0118 41.8306L68.3538 36.4717L73.7127 35.8138L73.0547 30.4549L78.4136 29.7969L77.9882 26.3326L81.7775 25.8674L82.6681 33.1209Z" fill="#F50000" fill-opacity="0.9"/>
    <path opacity="0.84" fill-rule="evenodd" clip-rule="evenodd" d="M107.832 50.0698L113.015 34.1206L118.949 36.0488L113.767 51.998L107.832 50.0698Z" fill="#0080FF" fill-opacity="0.9"/>
    <path opacity="0.84" fill-rule="evenodd" clip-rule="evenodd" d="M282.337 54.1236L266.579 59.8593L264.444 53.9956L280.203 48.2599L282.337 54.1236Z" fill="#0080FF" fill-opacity="0.9"/>
    <path opacity="0.77" fill-rule="evenodd" clip-rule="evenodd" d="M134.14 50.494L129.445 42.024L120.975 46.719L116.28 38.2491L107.81 42.944L101.455 31.4795L107.444 28.1596L110.48 33.635L118.949 28.94L123.644 37.41L132.114 32.715L136.809 41.185L142.285 38.1499L145.605 44.1391L134.14 50.494Z" fill="#F50000" fill-opacity="0.9"/>
    <path opacity="0.77" fill-rule="evenodd" clip-rule="evenodd" d="M267.556 43.6898L276.333 47.7825L280.426 39.0056L289.203 43.0983L293.296 34.3215L305.175 39.8612L302.281 46.0673L296.608 43.4216L292.515 52.1985L283.738 48.1058L279.645 56.8826L270.869 52.7899L268.223 58.4636L262.017 55.5697L267.556 43.6898Z" fill="#F50000" fill-opacity="0.9"/>
    <path opacity="0.92" d="M174.385 24.0102C174.75 21.4069 177.157 19.5931 179.761 19.959C182.364 20.3249 184.178 22.7319 183.812 25.3352C183.446 27.9384 181.039 29.7522 178.436 29.3864C175.832 29.0205 174.019 26.6135 174.385 24.0102Z" fill="#99FF66" fill-opacity="0.9"/>
    <path opacity="0.82" fill-rule="evenodd" clip-rule="evenodd" d="M215.57 18.9223L214.473 25.1463L208.249 24.0488L209.346 17.8248L215.57 18.9223Z" fill="#FFD500" fill-opacity="0.9"/>
    <path opacity="0.99" fill-rule="evenodd" clip-rule="evenodd" d="M248.757 49.9583L241.099 46.7074L244.35 39.0488L252.008 42.2997L248.757 49.9583Z" fill="#FFD500" fill-opacity="0.9"/>
    <path opacity="0.95" fill-rule="evenodd" clip-rule="evenodd" d="M273.28 18.1109L272.834 24.4953L266.449 24.0488L266.896 17.6644L273.28 18.1109Z" fill="#FFD500" fill-opacity="0.9"/>
    <path opacity="0.77" fill-rule="evenodd" clip-rule="evenodd" d="M271.116 24.65L278.033 22.1327L280.55 29.0488L273.634 31.5661L271.116 24.65Z" fill="#FFD500" fill-opacity="0.9"/>
    <path opacity="0.73" d="M21.7245 75.1836C20.3996 76.419 18.3241 76.3465 17.0887 75.0217C15.8533 73.6968 15.9257 71.6213 17.2506 70.3859C18.5754 69.1504 20.6509 69.2229 21.8864 70.5478C23.1218 71.8726 23.0493 73.9481 21.7245 75.1836Z" fill="#99FF66" fill-opacity="0.9"/>
    <path opacity="0.97" fill-rule="evenodd" clip-rule="evenodd" d="M46.8042 65.5201L44.091 69.8621L39.749 67.1489L42.4622 62.8069L46.8042 65.5201Z" fill="#FFD500" fill-opacity="0.9"/>
    <path opacity="0.81" fill-rule="evenodd" clip-rule="evenodd" d="M77.4504 62.5997L83.4716 69.2869L90.1588 63.2657L96.18 69.9529L102.867 63.9317L111.017 72.9832L106.289 77.2409L102.396 72.9179L95.7091 78.9392L89.6879 72.2519L83.0007 78.2731L76.9794 71.5859L72.6565 75.4783L68.3989 70.7497L77.4504 62.5997Z" fill="#F50000" fill-opacity="0.9"/>
    <path opacity="0.86" fill-rule="evenodd" clip-rule="evenodd" d="M189.331 43.58L195.943 47.8741L200.237 41.2617L206.85 45.5559L211.144 38.9434L220.094 44.7558L217.058 49.4315L212.783 46.6556L208.489 53.268L201.876 48.9738L197.582 55.5863L190.97 51.2921L188.194 55.5667L183.518 52.5303L189.331 43.58Z" fill="#F50000" fill-opacity="0.9"/>
    <path opacity="0.74" d="M128.635 69.7636C128.232 71.5071 126.493 72.5942 124.749 72.1917C123.006 71.7892 121.918 70.0494 122.321 68.3059C122.723 66.5623 124.463 65.4752 126.207 65.8778C127.95 66.2803 129.037 68.02 128.635 69.7636Z" fill="#99FF66" fill-opacity="0.9"/>
    <path opacity="0.92" fill-rule="evenodd" clip-rule="evenodd" d="M186.143 71.7085L189.866 78.4256L183.149 82.1489L179.426 75.4318L186.143 71.7085Z" fill="#FFD500" fill-opacity="0.9"/>
    <path opacity="0.81" fill-rule="evenodd" clip-rule="evenodd" d="M183.819 69.5371L189.851 81.9045L185.249 84.1489L179.217 71.7815L183.819 69.5371Z" fill="#0080FF" fill-opacity="0.9"/>
    <path opacity="0.96" fill-rule="evenodd" clip-rule="evenodd" d="M259.32 84.1014L240.813 88.0351L239.35 81.1489L257.856 77.2152L259.32 84.1014Z" fill="#0080FF" fill-opacity="0.9"/>
    <path opacity="0.7" d="M246.4 71.7092C247.818 70.9871 249.552 71.5506 250.274 72.9678C250.996 74.3851 250.433 76.1193 249.015 76.8414C247.598 77.5635 245.864 77 245.142 75.5828C244.42 74.1656 244.983 72.4313 246.4 71.7092Z" fill="#99FF66" fill-opacity="0.9"/>
    <path opacity="0.71" d="M316.021 48.9711C318.1 50.2705 318.733 53.0097 317.433 55.0893C316.134 57.1688 313.395 57.8012 311.315 56.5018C309.236 55.2023 308.603 52.4631 309.903 50.3836C311.202 48.3041 313.941 47.6717 316.021 48.9711Z" fill="#99FF66" fill-opacity="0.9"/>
    <path opacity="0.96" fill-rule="evenodd" clip-rule="evenodd" d="M15.8472 110.364L15.6908 101.405L24.6494 101.249L24.8058 110.207L15.8472 110.364Z" fill="#FFD500" fill-opacity="0.9"/>
    <path opacity="0.95" d="M32.9678 110.622C32.0257 111.706 30.3835 111.821 29.2998 110.879C28.216 109.937 28.1012 108.294 29.0433 107.211C29.9853 106.127 31.6276 106.012 32.7113 106.954C33.795 107.896 33.9098 109.539 32.9678 110.622Z" fill="#99FF66" fill-opacity="0.9"/>
    <path opacity="0.88" fill-rule="evenodd" clip-rule="evenodd" d="M58.1976 103.951L55.6726 98.7736L60.8496 96.2485L63.3746 101.426L58.1976 103.951Z" fill="#FFD500" fill-opacity="0.9"/>
    <path opacity="0.86" d="M99.1227 90.9005C100.544 90.2376 102.234 90.8526 102.897 92.2741C103.56 93.6957 102.945 95.3854 101.523 96.0483C100.102 96.7112 98.4119 96.0962 97.749 94.6746C97.0861 93.2531 97.7011 91.5633 99.1227 90.9005Z" fill="#99FF66" fill-opacity="0.9"/>
    <path opacity="0.94" fill-rule="evenodd" clip-rule="evenodd" d="M134.6 92.9779L142.294 104.385L138.05 107.249L130.355 95.841L134.6 92.9779Z" fill="#0080FF" fill-opacity="0.9"/>
    <path d="M184.949 96.0323C187.073 96.8477 188.134 99.2309 187.319 101.355C186.503 103.479 184.12 104.54 181.996 103.725C179.871 102.91 178.81 100.526 179.626 98.4022C180.441 96.2779 182.824 95.2169 184.949 96.0323Z" fill="#99FF66" fill-opacity="0.9"/>
    <path fill-rule="evenodd" clip-rule="evenodd" d="M210.517 101.431L187.956 100.643L188.249 92.2485L210.81 93.0364L210.517 101.431Z" fill="#0080FF" fill-opacity="0.9"/>
    <path opacity="0.81" d="M229.592 92.0126C231.217 93.476 231.348 95.9799 229.885 97.6052C228.422 99.2305 225.918 99.3617 224.292 97.8983C222.667 96.4349 222.536 93.931 223.999 92.3057C225.463 90.6804 227.967 90.5492 229.592 92.0126Z" fill="#99FF66" fill-opacity="0.9"/>
    <path d="M263.127 81.2468C265.411 80.844 267.589 82.3693 267.992 84.6537C268.395 86.9381 266.87 89.1164 264.585 89.5192C262.301 89.922 260.123 88.3967 259.72 86.1123C259.317 83.828 260.842 81.6496 263.127 81.2468Z" fill="#99FF66" fill-opacity="0.9"/>
    <path opacity="0.88" fill-rule="evenodd" clip-rule="evenodd" d="M309.431 102.449L291.943 92.7557L295.55 86.2485L313.038 95.9423L309.431 102.449Z" fill="#0080FF" fill-opacity="0.9"/>
    <path opacity="0.98" fill-rule="evenodd" clip-rule="evenodd" d="M11.177 132.016L20.0796 130.446L21.6494 139.349L12.7468 140.918L11.177 132.016Z" fill="#FFD500" fill-opacity="0.9"/>
    <path opacity="0.8" fill-rule="evenodd" clip-rule="evenodd" d="M51.1026 131.645L46.7775 134.674L43.749 130.349L48.0741 127.32L51.1026 131.645Z" fill="#FFD500" fill-opacity="0.9"/>
    <path opacity="0.93" d="M61.4704 137.83C61.2118 135.369 62.9969 133.165 65.4576 132.906C67.9183 132.647 70.1227 134.432 70.3813 136.893C70.6399 139.354 68.8548 141.558 66.3942 141.817C63.9335 142.076 61.729 140.29 61.4704 137.83Z" fill="#99FF66" fill-opacity="0.9"/>
    <path opacity="0.83" fill-rule="evenodd" clip-rule="evenodd" d="M93.7586 113.573L96.4069 109.166L91.9994 106.517L94.6477 102.11L90.2401 99.4615L93.8248 93.4956L96.9414 95.3683L95.2294 98.2175L99.637 100.866L96.9887 105.273L101.396 107.922L98.7479 112.329L101.597 114.041L99.7245 117.158L93.7586 113.573Z" fill="#F50000" fill-opacity="0.9"/>
    <path opacity="0.76" fill-rule="evenodd" clip-rule="evenodd" d="M126.996 111.787L132.304 111.041L133.05 116.349L127.742 117.095L126.996 111.787Z" fill="#FFD500" fill-opacity="0.9"/>
    <path opacity="0.74" d="M174.001 132.405C172.205 131.605 171.397 129.501 172.197 127.705C172.997 125.909 175.101 125.101 176.897 125.901C178.693 126.7 179.501 128.805 178.701 130.601C177.902 132.397 175.797 133.205 174.001 132.405Z" fill="#99FF66" fill-opacity="0.9"/>
    <path opacity="0.78" fill-rule="evenodd" clip-rule="evenodd" d="M206.736 125.05L214.705 125.189L214.844 117.22L222.813 117.359L222.952 109.39L233.739 109.578L233.64 115.213L228.489 115.123L228.35 123.092L220.381 122.953L220.242 130.922L212.273 130.783L212.183 135.934L206.548 135.836L206.736 125.05Z" fill="#F50000" fill-opacity="0.9"/>
    <path opacity="0.96" fill-rule="evenodd" clip-rule="evenodd" d="M225.8 118.295L226.102 124.047L220.35 124.349L220.048 118.597L225.8 118.295Z" fill="#FFD500" fill-opacity="0.9"/>
    <path opacity="0.96" fill-rule="evenodd" clip-rule="evenodd" d="M236.911 123.721L243.494 119.766L247.449 126.349L240.866 130.304L236.911 123.721Z" fill="#FFD500" fill-opacity="0.9"/>
    <path opacity="0.98" fill-rule="evenodd" clip-rule="evenodd" d="M294.614 161.785L283.364 150.535L287.55 146.349L298.8 157.599L294.614 161.785Z" fill="#0080FF" fill-opacity="0.9"/>
    <path opacity="0.72" fill-rule="evenodd" clip-rule="evenodd" d="M7.21309 149.731L10.3765 141.49L2.1356 138.326L5.29897 130.086L-2.9419 126.922L1.33989 115.768L7.16706 118.005L5.12211 123.332L13.363 126.495L10.1996 134.736L18.4405 137.899L15.2771 146.14L20.6044 148.185L18.3675 154.012L7.21309 149.731Z" fill="#F50000" fill-opacity="0.9"/>
    <path opacity="0.74" fill-rule="evenodd" clip-rule="evenodd" d="M36.6644 149.051L43.4056 154.708L37.749 161.449L31.0078 155.792L36.6644 149.051Z" fill="#FFD500" fill-opacity="0.9"/>
    <path opacity="0.95" d="M76.3954 171.675C75.743 173.808 73.4845 175.009 71.3507 174.357C69.217 173.705 68.0161 171.446 68.6684 169.312C69.3208 167.178 71.5793 165.978 73.7131 166.63C75.8468 167.282 77.0477 169.541 76.3954 171.675Z" fill="#99FF66" fill-opacity="0.9"/>
    <path opacity="0.95" d="M100.395 147.675C99.743 149.808 97.4845 151.009 95.3507 150.357C93.217 149.705 92.0161 147.446 92.6684 145.312C93.3208 143.178 95.5793 141.978 97.7131 142.63C99.8468 143.282 101.048 145.541 100.395 147.675Z" fill="#99FF66" fill-opacity="0.9"/>
    <path opacity="0.95" d="M140.395 179.675C139.743 181.808 137.484 183.009 135.351 182.357C133.217 181.705 132.016 179.446 132.668 177.312C133.321 175.178 135.579 173.978 137.713 174.63C139.847 175.282 141.048 177.541 140.395 179.675Z" fill="#99FF66" fill-opacity="0.9"/>
    <path opacity="0.98" fill-rule="evenodd" clip-rule="evenodd" d="M104.639 163.692L108.672 156.415L115.949 160.449L111.916 167.726L104.639 163.692Z" fill="#FFD500" fill-opacity="0.9"/>
    <path opacity="0.78" fill-rule="evenodd" clip-rule="evenodd" d="M139.825 128.657L147.145 147.725L140.05 150.449L132.73 131.38L139.825 128.657Z" fill="#0080FF" fill-opacity="0.9"/>
    <path opacity="0.86" d="M163.089 160.36C161.224 159.895 160.089 158.006 160.554 156.142C161.019 154.277 162.908 153.142 164.773 153.607C166.638 154.072 167.772 155.96 167.308 157.825C166.843 159.69 164.954 160.825 163.089 160.36Z" fill="#99FF66" fill-opacity="0.9"/>
    <path opacity="0.76" fill-rule="evenodd" clip-rule="evenodd" d="M282.654 104.862L289.129 126.04L281.249 128.449L274.774 107.271L282.654 104.862Z" fill="#0080FF" fill-opacity="0.9"/>
    <path opacity="0.84" fill-rule="evenodd" clip-rule="evenodd" d="M223.368 176.888L229.707 182.398L235.217 176.059L241.556 181.569L247.066 175.231L255.645 182.689L251.749 187.171L247.651 183.609L242.141 189.948L235.803 184.438L230.293 190.776L223.954 185.266L220.392 189.364L215.91 185.468L223.368 176.888Z" fill="#F50000" fill-opacity="0.9"/>
    <path opacity="0.94" fill-rule="evenodd" clip-rule="evenodd" d="M280.446 175.043L271.651 178.244L268.449 169.449L277.245 166.247L280.446 175.043Z" fill="#FFD500" fill-opacity="0.9"/>
    <path opacity="0.96" fill-rule="evenodd" clip-rule="evenodd" d="M291.045 173.107L295.968 165.525L303.55 170.449L298.626 178.03L291.045 173.107Z" fill="#FFD500" fill-opacity="0.9"/>
    <path opacity="0.78" fill-rule="evenodd" clip-rule="evenodd" d="M5.62345 165.474L10.1036 190.882L0.649414 192.549L-3.83071 167.141L5.62345 165.474Z" fill="#0080FF" fill-opacity="0.9"/>
    <path opacity="0.96" fill-rule="evenodd" clip-rule="evenodd" d="M55.4878 193.527L56.7886 187.408L50.6691 186.107L51.9699 179.987L45.8504 178.687L47.611 170.404L51.9381 171.324L51.0973 175.279L57.2167 176.58L55.916 182.7L62.0354 184L60.7347 190.12L64.6906 190.961L63.7708 195.288L55.4878 193.527Z" fill="#F50000" fill-opacity="0.9"/>
    <path opacity="0.8" fill-rule="evenodd" clip-rule="evenodd" d="M78.5617 183.751L83.6044 181.506L85.8496 186.549L80.8068 188.794L78.5617 183.751Z" fill="#FFD500" fill-opacity="0.9"/>
    <path opacity="0.85" d="M102.598 189.474C104.012 189.499 105.138 190.665 105.113 192.079C105.088 193.492 103.922 194.618 102.509 194.594C101.095 194.569 99.9692 193.403 99.9939 191.989C100.019 190.576 101.185 189.45 102.598 189.474Z" fill="#99FF66" fill-opacity="0.9"/>
    <path opacity="0.96" d="M153.147 200.699C155.334 200.737 157.076 202.541 157.038 204.728C157 206.914 155.196 208.656 153.009 208.618C150.822 208.58 149.081 206.776 149.119 204.589C149.157 202.403 150.961 200.661 153.147 200.699Z" fill="#99FF66" fill-opacity="0.9"/>
    <path opacity="0.84" d="M176.01 194.391C175.588 196.221 173.762 197.362 171.933 196.939C170.103 196.517 168.962 194.691 169.385 192.862C169.807 191.032 171.633 189.891 173.462 190.314C175.292 190.736 176.433 192.562 176.01 194.391Z" fill="#99FF66" fill-opacity="0.9"/>
    <path opacity="0.84" d="M204.212 190.325C206.135 190.733 207.362 192.624 206.954 194.547C206.545 196.47 204.654 197.698 202.731 197.289C200.808 196.88 199.58 194.99 199.989 193.067C200.398 191.143 202.288 189.916 204.212 190.325Z" fill="#99FF66" fill-opacity="0.9"/>
    <path opacity="0.97" fill-rule="evenodd" clip-rule="evenodd" d="M236.404 207.111L229.096 203.857L232.35 196.549L239.658 199.803L236.404 207.111Z" fill="#FFD500" fill-opacity="0.9"/>
    <path opacity="0.96" fill-rule="evenodd" clip-rule="evenodd" d="M262.877 202.969L264.182 178.063L273.449 178.549L272.144 203.455L262.877 202.969Z" fill="#0080FF" fill-opacity="0.9"/>
    <path opacity="0.74" d="M294.664 180.197C295.748 178.858 297.713 178.652 299.052 179.736C300.391 180.82 300.598 182.785 299.513 184.124C298.429 185.463 296.464 185.67 295.125 184.585C293.786 183.501 293.579 181.536 294.664 180.197Z" fill="#99FF66" fill-opacity="0.9"/>
    <path opacity="0.87" fill-rule="evenodd" clip-rule="evenodd" d="M24.3934 220.575L5.8491 234.549L0.649414 227.649L19.1937 213.675L24.3934 220.575Z" fill="#0080FF" fill-opacity="0.9"/>
    <path opacity="0.91" fill-rule="evenodd" clip-rule="evenodd" d="M116.922 237.646L109.664 240.726L112.745 247.984L105.487 251.065L108.568 258.322L98.7445 262.492L96.5662 257.36L101.258 255.369L98.1772 248.111L105.435 245.031L102.354 237.773L109.612 234.692L107.62 230L112.752 227.822L116.922 237.646Z" fill="#F50000" fill-opacity="0.9"/>
    <path opacity="0.85" fill-rule="evenodd" clip-rule="evenodd" d="M51.9892 224.737L49.8108 215.301L40.3748 217.48L38.1964 208.044L28.7604 210.222L25.8117 197.45L32.484 195.91L33.8922 202.01L43.3282 199.831L45.5066 209.267L54.9426 207.089L57.1211 216.525L63.2209 215.116L64.7613 221.789L51.9892 224.737Z" fill="#F50000" fill-opacity="0.9"/>
    <path opacity="0.87" fill-rule="evenodd" clip-rule="evenodd" d="M125.37 214.531L124.219 221.8L116.949 220.649L118.101 213.38L125.37 214.531Z" fill="#FFD500" fill-opacity="0.9"/>
    <path opacity="0.81" d="M146.255 233.902C147.106 232.428 148.989 231.924 150.462 232.774C151.936 233.625 152.44 235.508 151.59 236.982C150.739 238.455 148.856 238.959 147.382 238.109C145.909 237.258 145.405 235.375 146.255 233.902Z" fill="#99FF66" fill-opacity="0.9"/>
    <path opacity="0.85" fill-rule="evenodd" clip-rule="evenodd" d="M152.896 243.728L151.483 238.062L157.149 236.649L158.562 242.315L152.896 243.728Z" fill="#FFD500" fill-opacity="0.9"/>
    <path opacity="0.72" fill-rule="evenodd" clip-rule="evenodd" d="M185.634 233.072L185.73 227.553L191.249 227.649L191.153 233.168L185.634 233.072Z" fill="#FFD500" fill-opacity="0.9"/>
    <path opacity="0.71" d="M225.499 213.345C226.355 214.891 225.797 216.838 224.251 217.695C222.705 218.552 220.758 217.993 219.901 216.448C219.044 214.902 219.603 212.954 221.148 212.098C222.694 211.241 224.642 211.799 225.499 213.345Z" fill="#99FF66" fill-opacity="0.9"/>
    <path opacity="0.98" fill-rule="evenodd" clip-rule="evenodd" d="M273.005 219.881L265.611 217.043L268.449 209.649L275.843 212.487L273.005 219.881Z" fill="#FFD500" fill-opacity="0.9"/>
    <path opacity="0.73" fill-rule="evenodd" clip-rule="evenodd" d="M296.496 219.656L298.668 212.973L291.984 210.801L294.156 204.117L287.472 201.946L290.412 192.899L295.138 194.435L293.734 198.755L300.417 200.927L298.246 207.611L304.929 209.782L302.758 216.466L307.078 217.869L305.543 222.595L296.496 219.656Z" fill="#F50000" fill-opacity="0.9"/>
    <path opacity="0.83" fill-rule="evenodd" clip-rule="evenodd" d="M65.3142 268.406L43.1485 258.997L46.6494 250.749L68.8152 260.158L65.3142 268.406Z" fill="#0080FF" fill-opacity="0.9"/>
    <path opacity="0.79" fill-rule="evenodd" clip-rule="evenodd" d="M25.1564 259.502L18.252 255.188L13.9376 262.092L7.03318 257.778L2.71882 264.682L-6.6267 258.842L-3.57598 253.96L0.887365 256.749L5.20173 249.845L12.1062 254.159L16.4205 247.255L23.325 251.569L26.114 247.106L30.9961 250.156L25.1564 259.502Z" fill="#F50000" fill-opacity="0.9"/>
    <path opacity="0.95" fill-rule="evenodd" clip-rule="evenodd" d="M78.1091 234.47L81.1189 242.739L72.8496 245.749L69.8398 237.48L78.1091 234.47Z" fill="#FFD500" fill-opacity="0.9"/>
    <path opacity="0.97" fill-rule="evenodd" clip-rule="evenodd" d="M87.4128 278.423L86.344 270.818L93.9492 269.749L95.0181 277.354L87.4128 278.423Z" fill="#FFD500" fill-opacity="0.9"/>
    <path opacity="0.96" fill-rule="evenodd" clip-rule="evenodd" d="M140.84 255.587L141.526 249.063L148.05 249.749L147.364 256.273L140.84 255.587Z" fill="#FFD500" fill-opacity="0.9"/>
    <path d="M167.187 267.716C165.652 266.284 165.568 263.88 167 262.345C168.431 260.81 170.835 260.726 172.37 262.157C173.905 263.589 173.989 265.993 172.558 267.528C171.127 269.063 168.722 269.147 167.187 267.716Z" fill="#99FF66" fill-opacity="0.9"/>
    <path opacity="0.84" d="M195.837 244.874C194.77 243.913 194.684 242.269 195.645 241.202C196.606 240.135 198.25 240.048 199.317 241.009C200.384 241.97 200.47 243.614 199.509 244.681C198.548 245.748 196.904 245.834 195.837 244.874Z" fill="#99FF66" fill-opacity="0.9"/>
    <path opacity="0.72" fill-rule="evenodd" clip-rule="evenodd" d="M238.941 264.285L235.877 269.813L230.35 266.749L233.414 261.221L238.941 264.285Z" fill="#FFD500" fill-opacity="0.9"/>
    <path opacity="0.81" fill-rule="evenodd" clip-rule="evenodd" d="M262.903 235.99L265.276 231.332L260.618 228.959L262.992 224.301L258.334 221.928L261.546 215.623L264.84 217.301L263.306 220.312L267.964 222.686L265.59 227.344L270.248 229.717L267.875 234.375L270.886 235.909L269.208 239.203L262.903 235.99Z" fill="#F50000" fill-opacity="0.9"/>
    <path opacity="0.99" fill-rule="evenodd" clip-rule="evenodd" d="M289.096 259.343L295.526 254.319L300.55 260.749L294.12 265.773L289.096 259.343Z" fill="#FFD500" fill-opacity="0.9"/>
    <path fill-rule="evenodd" clip-rule="evenodd" d="M34.0419 284.585L37.4817 293.546L46.4426 290.106L49.8824 299.067L58.8434 295.628L63.4993 307.757L57.163 310.189L54.9393 304.396L45.9784 307.836L42.5386 298.875L33.5777 302.315L30.1379 293.354L24.3451 295.577L21.9128 289.241L34.0419 284.585Z" fill="#F50000" fill-opacity="0.9"/>
    <path opacity="0.93" fill-rule="evenodd" clip-rule="evenodd" d="M58.2595 295.079L51.389 294.719L51.749 287.849L58.6196 288.209L58.2595 295.079Z" fill="#FFD500" fill-opacity="0.9"/>
    <path opacity="0.75" d="M92.334 298.176C92.7571 299.755 91.82 301.378 90.241 301.801C88.6619 302.224 87.0388 301.287 86.6157 299.708C86.1926 298.129 87.1297 296.506 88.7087 296.083C90.2878 295.659 91.9109 296.597 92.334 298.176Z" fill="#99FF66" fill-opacity="0.9"/>
    <path opacity="0.87" d="M105.168 276.616C106.9 276.087 108.734 277.062 109.264 278.794C109.793 280.526 108.818 282.36 107.086 282.89C105.354 283.419 103.52 282.444 102.99 280.712C102.461 278.98 103.436 277.146 105.168 276.616Z" fill="#99FF66" fill-opacity="0.9"/>
    <path opacity="0.84" fill-rule="evenodd" clip-rule="evenodd" d="M134.907 293.519L130.143 296.612L127.05 291.849L131.813 288.755L134.907 293.519Z" fill="#FFD500" fill-opacity="0.9"/>
    <path opacity="0.7" fill-rule="evenodd" clip-rule="evenodd" d="M186.581 285.059L186.744 294.399L196.084 294.236L196.247 303.576L205.587 303.413L205.807 316.055L199.203 316.171L199.098 310.133L189.758 310.296L189.595 300.956L180.255 301.119L180.092 291.779L174.054 291.884L173.939 285.28L186.581 285.059Z" fill="#F50000" fill-opacity="0.9"/>
    <path opacity="0.73" fill-rule="evenodd" clip-rule="evenodd" d="M227.947 271.379L220.683 275.241L224.545 282.506L217.281 286.368L221.143 293.632L211.311 298.86L208.58 293.724L213.275 291.227L209.413 283.963L216.677 280.1L212.815 272.836L220.079 268.974L217.582 264.278L222.719 261.546L227.947 271.379Z" fill="#F50000" fill-opacity="0.9"/>
    <path opacity="0.94" fill-rule="evenodd" clip-rule="evenodd" d="M235.096 304.419L233.748 309.824L239.153 311.171L237.805 316.576L243.21 317.924L241.386 325.24L237.564 324.287L238.436 320.793L233.031 319.446L234.378 314.04L228.973 312.693L230.321 307.288L226.827 306.417L227.78 302.595L235.096 304.419Z" fill="#F50000" fill-opacity="0.9"/>
    <path opacity="0.77" fill-rule="evenodd" clip-rule="evenodd" d="M250.91 285.13L246.039 279.72L251.449 274.849L256.32 280.259L250.91 285.13Z" fill="#FFD500" fill-opacity="0.9"/>
    <path opacity="0.91" fill-rule="evenodd" clip-rule="evenodd" d="M278.021 300.818L272.061 286.066L277.55 283.849L283.51 298.6L278.021 300.818Z" fill="#0080FF" fill-opacity="0.9"/>
    <g filter="url(#filter0_dd)">
      <rect x="115" y="141" width="81" height="30" rx="4" fill="#FAFAFA"/>
    </g>
    <path d="M159.228 161.059H183.287L153.049 165L161.162 150.203H151.83L167.107 147L159.228 161.059Z" fill="#E70304"/>
    <path d="M129.523 158.755H132.249L131.998 159.965H128L128.771 156.231H130.047L129.523 158.755Z" fill="#E70304"/>
    <path d="M137.658 156.231L136.884 159.965H132.93L133.18 158.755H135.862L136.385 156.231H137.658Z" fill="#E70304"/>
    <path d="M129.747 151.518H133.748L133.494 152.729H130.771L130.248 155.247H128.976L129.747 151.518Z" fill="#E70304"/>
    <path d="M138.635 151.518L137.863 155.247H136.591L137.111 152.729H134.43L134.68 151.518H138.635Z" fill="#E70304"/>
    <path d="M134.85 154.497L134.694 155.247L134.492 156.231L134.336 156.986H131.796L131.952 156.231L132.154 155.247L132.309 154.497H134.85Z" fill="#062D7E"/>
    <path d="M140.724 151.516H143.797C145.89 151.516 145.973 153.031 145.746 154.083C145.415 155.598 144.469 156.662 142.483 156.662H141.612L140.913 159.963H138.928L140.724 151.516ZM141.931 155.196H142.473C143.264 155.196 143.561 154.699 143.678 154.132C143.807 153.481 143.702 152.984 142.897 152.984H142.391L141.931 155.196Z" fill="#062D7E"/>
    <path d="M148.207 151.516H150.689L150.996 159.963H148.939L148.976 158.353H146.954L146.316 159.963H144.26L148.207 151.516ZM149.08 153.055H149.056L147.567 156.818H149.01L149.08 153.055Z" fill="#062D7E"/>
    <path d="M152.816 156.638L151.765 151.516H153.962L154.235 154.65H154.259L155.901 151.516H158.028L154.802 156.638L154.093 159.963H152.108L152.816 156.638Z" fill="#062D7E"/>
    <path d="M166.596 151.516H169.079L169.385 159.963H167.329L167.365 158.353H165.343L164.706 159.963H162.649L166.596 151.516ZM167.472 153.055H167.448L165.959 156.818H167.402L167.472 153.055Z" fill="#E70304"/>
    <path d="M171.821 151.516H174.894C176.987 151.516 177.07 153.031 176.843 154.083C176.512 155.598 175.566 156.662 173.58 156.662H172.707L172.008 159.963H170.022L171.821 151.516ZM173.025 155.196H173.568C174.359 155.196 174.656 154.699 174.773 154.132C174.901 153.481 174.797 152.984 173.991 152.984H173.483L173.025 155.196Z" fill="#E70304"/>
    <path d="M178.39 151.516H181.464C183.556 151.516 183.639 153.031 183.413 154.083C183.082 155.598 182.135 156.662 180.149 156.662H179.276L178.577 159.963H176.592L178.39 151.516ZM179.597 155.196H180.14C180.931 155.196 181.227 154.699 181.344 154.132C181.473 153.481 181.369 152.984 180.563 152.984H180.055L179.597 155.196Z" fill="#E70304"/>
  </g>
  <defs>
    <filter id="filter0_dd" x="105" y="131" width="101" height="50" filterUnits="userSpaceOnUse" color-interpolation-filters="sRGB">
      <feFlood flood-opacity="0" result="BackgroundImageFix"/>
      <feColorMatrix in="SourceAlpha" type="matrix" values="0 0 0 0 0 0 0 0 0 0 0 0 0 0 0 0 0 0 127 0" result="hardAlpha"/>
      <feOffset dx="2" dy="2"/>
      <feGaussianBlur stdDeviation="4"/>
      <feColorMatrix type="matrix" values="0 0 0 0 0.933333 0 0 0 0 0.00392157 0 0 0 0 0.00784314 0 0 0 0.1 0"/>
      <feBlend mode="normal" in2="BackgroundImageFix" result="effect1_dropShadow"/>
      <feColorMatrix in="SourceAlpha" type="matrix" values="0 0 0 0 0 0 0 0 0 0 0 0 0 0 0 0 0 0 127 0" result="hardAlpha"/>
      <feOffset dx="-2" dy="-2"/>
      <feGaussianBlur stdDeviation="4"/>
      <feColorMatrix type="matrix" values="0 0 0 0 1 0 0 0 0 1 0 0 0 0 1 0 0 0 1 0"/>
      <feBlend mode="normal" in2="effect1_dropShadow" result="effect2_dropShadow"/>
      <feBlend mode="normal" in="SourceGraphic" in2="effect2_dropShadow" result="shape"/>
    </filter>
    <clipPath id="clip0">
      <rect width="311" height="311" rx="24" fill="white"/>
    </clipPath>
  </defs>
</svg>
